<svg xmlns="http://www.w3.org/2000/svg" xmlns:xlink="http://www.w3.org/1999/xlink" id="Group_49311" data-name="Group 49311" width="61.374" height="76.451" viewBox="0 0 61.374 76.451"><defs><clipPath id="clip-path"><rect id="Rectangle_13611" data-name="Rectangle 13611" width="61.374" height="76.452" fill="#fff"></rect></clipPath></defs><g id="Group_490" data-name="Group 490" clip-path="url(#clip-path)"><path id="Path_71624" data-name="Path 71624" d="M27.631,34.665c0,1.675-.021,3.351.013,5.026.01.49-.12.633-.605.6a19.577,19.577,0,0,0-1.962-.007,2.507,2.507,0,0,0-.037,5.013c.679.027,1.362.034,2.04,0,.446-.024.568.116.562.561-.026,1.727.005,3.455-.021,5.182-.007.447.122.569.563.559,1.308-.029,2.617-.016,3.925-.006.342,0,.523-.009.58-.469a5.01,5.01,0,0,1,9.977-.031c.062.5.257.5.631.5,2.093-.012,4.188.017,6.281-.02.559-.01.671.145.679.687.12,8.648-3.342,15.532-10.149,20.8-1.117.864-2.182,1.794-3.289,2.67a.9.9,0,0,0-.4.856,6.968,6.968,0,0,1,0,1.1,2.391,2.391,0,0,0,1.1,2.486,3.6,3.6,0,0,1-.668,6.156c-.506.249-.654.445-.512,1.023a3.6,3.6,0,0,1-1.96,3.985,1.046,1.046,0,0,0-.647.857A8.767,8.767,0,0,1,16.5,92.172a.984.984,0,0,0-.587-.816,3.615,3.615,0,0,1-1.979-4.181c.089-.388.058-.569-.358-.754a3.715,3.715,0,0,1-.154-6.77.638.638,0,0,0,.4-.652c.092-2.864.1-2.863-2.121-4.67A38.163,38.163,0,0,1,4.462,67.3,24.359,24.359,0,0,1,15.047,30.786,29.892,29.892,0,0,1,27.2,28.958c.437.011.438.2.436.524-.009,1.728,0,3.455,0,5.183M7.564,54.1c-1.465,0-2.932.03-4.4-.015-.587-.018-.667.171-.62.706a21.71,21.71,0,0,0,8.124,15.442c1.716,1.413,3.432,2.828,5.168,4.216a1.159,1.159,0,0,1,.5,1.052c-.034,1.072.009,2.146-.021,3.219-.012.419.12.52.525.517q3.886-.026,7.772,0c.422,0,.516-.127.514-.527q-.024-4.515,0-9.03c0-.414-.132-.485-.517-.536a5.018,5.018,0,0,1,.051-9.99c.378-.05.47-.144.464-.507-.021-1.335-.028-2.67,0-4,.011-.456-.136-.561-.569-.553-1.543.025-3.088.014-4.631.008-.755,0-1.742.258-2.2-.117-.479-.393-.1-1.42-.147-2.168-.005-.078,0-.157,0-.235a2.509,2.509,0,0,0-5.017-.024c-.021.68-.031,1.362.005,2.041.023.426-.129.52-.528.514-1.491-.022-2.983-.009-4.475-.009M27.631,72.93c0,1.911.012,3.821-.009,5.732,0,.422.079.585.545.577,1.727-.029,3.455-.037,5.181,0,.535.013.583-.2.572-.632-.027-1.046.011-2.094-.018-3.14a1.091,1.091,0,0,1,.46-.988c1.555-1.238,3.069-2.527,4.628-3.76a21.97,21.97,0,0,0,8.686-15.806c.057-.625-.008-.853-.719-.835-2.066.054-4.134.008-6.2.028-.424,0-.6-.081-.574-.548.04-.678.029-1.361,0-2.041a2.506,2.506,0,0,0-5.012.011,15.818,15.818,0,0,0,.005,1.805c.046.583-.1.8-.743.781-2.014-.049-4.03,0-6.044-.031-.583-.01-.794.1-.779.747.048,2.066,0,4.135.028,6.2.005.461-.076.655-.589.615a18.23,18.23,0,0,0-1.962-.009,2.509,2.509,0,0,0,.012,5.017,16.256,16.256,0,0,0,1.8-.007c.559-.045.758.084.741.7-.049,1.857-.018,3.716-.018,5.574M25.118,34.68c0-.811-.035-1.624.012-2.433.033-.58-.095-.786-.742-.781a21.361,21.361,0,0,0-12.38,3.826,21.416,21.416,0,0,0-9.379,15.7c-.058.5.049.61.544.6,2.119-.028,4.238-.022,6.357,0,.394,0,.495-.1.547-.505a5.017,5.017,0,0,1,9.988.025c.047.354.1.489.49.481,1.36-.026,2.721-.021,4.081,0,.361.005.5-.074.492-.469-.029-.941-.024-1.884,0-2.825.009-.355-.074-.461-.458-.513A5.015,5.015,0,0,1,24.68,37.8c.4-.054.451-.188.444-.525-.018-.863-.006-1.727-.006-2.59M25.11,84.253h3.763c2.039,0,4.077.007,6.116,0a1.273,1.273,0,0,0,1.43-1.225c.018-.766-.544-1.263-1.453-1.283-.131,0-.261,0-.392,0h-18.9a6.533,6.533,0,0,0-.705.01A1.249,1.249,0,0,0,15,84.244a6.191,6.191,0,0,0,.627.009H25.11m-6.091,7.566a6.217,6.217,0,0,0,12.193,0Zm6.127-2.54q3.605,0,7.211,0c.985,0,1.556-.475,1.55-1.263s-.576-1.246-1.566-1.246q-7.211,0-14.421,0c-1,0-1.569.443-1.589,1.223-.021.808.567,1.285,1.6,1.286q3.605,0,7.211,0" transform="translate(0 -22.879)" fill="#fff"></path><path id="Path_71625" data-name="Path 71625" d="M166.658,2.514c3,0,5.952,0,8.773.013a1.221,1.221,0,0,1,1.2,1.214c.017,1.742.013,3.521.009,5.242q0,1.173,0,2.347,0,1.061,0,2.121c0,1.721,0,3.5,0,5.247a1.274,1.274,0,0,1-1.4,1.409l-.928,0-1.172,0-1.182,0h-.34c0-.028,0-.057,0-.085a5.027,5.027,0,0,0-5-4.936h-.018a5.019,5.019,0,0,0-5.02,4.922c0,.034,0,.068,0,.1-.862,0-1.715,0-2.553,0s-1.659,0-2.48,0c-.005-.932-.009-1.815.025-2.7a3.317,3.317,0,0,0-2.943-3.661,2.387,2.387,0,0,1-2.1-2.231,2.531,2.531,0,0,1,1.625-2.541,1.735,1.735,0,0,1,.427-.136,2.981,2.981,0,0,0,2.976-3.306c-.022-.539-.013-1.1,0-1.69V3.8a1.247,1.247,0,0,1,1.244-1.272c3.051-.008,6.035-.012,8.869-.012m0-2.514q-4.437,0-8.875.012a3.76,3.76,0,0,0-3.751,3.745c-.01.628-.021,1.256,0,1.883.018.428-.049.669-.57.69a3.883,3.883,0,0,0-1.282.325,5.04,5.04,0,0,0-3.167,5.1,4.9,4.9,0,0,0,4.159,4.474c.726.129.9.388.872,1.089-.061,1.567-.009,3.139-.026,4.708,0,.407.068.609.54.609h.011q2.221-.014,4.442-.014,2.252,0,4.5.013h.011c.449,0,.576-.163.557-.591-.028-.653-.022-1.308,0-1.962a2.508,2.508,0,0,1,2.508-2.48h.007a2.51,2.51,0,0,1,2.5,2.493c.018.627.035,1.258-.006,1.883-.033.507.142.659.625.659h.037c.733-.011,1.466-.014,2.2-.014.785,0,1.569,0,2.354,0l.94,0a3.776,3.776,0,0,0,3.9-3.913c.009-2.459,0-4.918,0-7.377,0-2.538.018-5.075-.007-7.613a3.738,3.738,0,0,0-3.709-3.7Q171.047,0,166.658,0" transform="translate(-117.785)" fill="#fff"></path></g></svg>