<svg xmlns="http://www.w3.org/2000/svg" width="80.795" height="80.795" viewBox="0 0 80.795 80.795"><g id="Group_49309" data-name="Group 49309" transform="matrix(0.995, -0.105, 0.105, 0.995, 91.573, 70.92)"><g id="Group_486" data-name="Group 486" transform="translate(-83.444 -71.444)"><path id="Path_71617" data-name="Path 71617" d="M70.257,32.5l-6.99-.855a27.263,27.263,0,0,0-1.509-5.413l5.551-4.342a1.959,1.959,0,0,0,.336-2.75L60.4,9.878a1.96,1.96,0,0,0-2.751-.336L52.1,13.884a27.15,27.15,0,0,0-4.891-2.77l.855-6.99A1.961,1.961,0,0,0,46.353,1.94L34.682.515A1.959,1.959,0,0,0,32.5,2.223l-.855,6.99a27.188,27.188,0,0,0-5.413,1.51L21.89,5.172a1.961,1.961,0,0,0-2.751-.336L9.875,12.081a1.959,1.959,0,0,0-.336,2.75l4.344,5.551a27.3,27.3,0,0,0-2.77,4.891l-6.99-.853a1.959,1.959,0,0,0-2.183,1.707L.515,37.8a1.961,1.961,0,0,0,1.708,2.183l6.99.853a27.2,27.2,0,0,0,1.509,5.414L5.171,50.591a1.959,1.959,0,0,0-.336,2.75L12.081,62.6a2.016,2.016,0,0,0,2.75.337L20.382,58.6a27.3,27.3,0,0,0,4.891,2.77l-.853,6.99a1.959,1.959,0,0,0,1.707,2.183L37.8,71.965a1.961,1.961,0,0,0,2.183-1.708l.853-6.99a27.352,27.352,0,0,0,5.414-1.509l4.342,5.551a1.959,1.959,0,0,0,2.75.336L62.6,60.4a1.96,1.96,0,0,0,.336-2.751L58.6,52.1a27.221,27.221,0,0,0,2.77-4.891l6.99.855a1.959,1.959,0,0,0,2.183-1.708l1.427-11.67A1.96,1.96,0,0,0,70.257,32.5Z" transform="translate(-0.5 -0.5)" fill="none" stroke="#fff" stroke-width="2"></path><path id="Path_71619" data-name="Path 71619" d="M49.477,35.5A16.042,16.042,0,1,1,35.5,17.629,16.042,16.042,0,0,1,49.477,35.5Z" transform="translate(2.185 2.185)" fill="none" stroke="#fff" stroke-width="2"></path><path id="Path_71620" data-name="Path 71620" d="M21.547,29.794a9.621,9.621,0,0,1,10.716-8.383" transform="translate(2.823 2.79)" fill="none" stroke="#fff" stroke-width="2"></path></g></g></svg>