<svg xmlns="http://www.w3.org/2000/svg" width="231.274" height="47.077" viewBox="0 0 231.274 47.077"><g id="Group_49450" data-name="Group 49450" transform="translate(-197 -1960.923)"><path id="Path_71640" data-name="Path 71640" d="M13.077,0H51L37.923,47.077H0Z" transform="translate(221.471 1960.923)" fill="#e3cdeb"></path><path id="Path_71637" data-name="Path 71637" d="M10.188,0H231.274L221.086,36H0Z" transform="translate(197 1966)" fill="#7f3f97"></path><path id="Path_71972" data-name="Path 71972" d="M-86.43-3.41a.5.5,0,0,1,.38.17l1.06,1.15A5.822,5.822,0,0,1-87.155-.42,7.461,7.461,0,0,1-90.24.16a7.29,7.29,0,0,1-2.9-.55A6.381,6.381,0,0,1-95.33-1.92a6.7,6.7,0,0,1-1.395-2.34,8.784,8.784,0,0,1-.485-2.97,7.994,7.994,0,0,1,.54-2.985,6.84,6.84,0,0,1,1.52-2.335A6.879,6.879,0,0,1-92.8-14.075a8.062,8.062,0,0,1,3.015-.545,7.119,7.119,0,0,1,2.815.515A6.579,6.579,0,0,1-84.91-12.74l-.9,1.25a.816.816,0,0,1-.2.21.581.581,0,0,1-.345.09.786.786,0,0,1-.47-.18,5.818,5.818,0,0,0-.61-.39,4.973,4.973,0,0,0-.935-.39,4.811,4.811,0,0,0-1.435-.18,4.842,4.842,0,0,0-1.875.355,4.167,4.167,0,0,0-1.47,1.015,4.67,4.67,0,0,0-.96,1.6A6.164,6.164,0,0,0-94.46-7.23a6.334,6.334,0,0,0,.345,2.17,4.771,4.771,0,0,0,.935,1.6,3.993,3.993,0,0,0,1.39.995,4.3,4.3,0,0,0,1.72.345,7.492,7.492,0,0,0,.995-.06,4.224,4.224,0,0,0,.82-.19,3.64,3.64,0,0,0,.71-.335,4.436,4.436,0,0,0,.665-.505.948.948,0,0,1,.21-.145A.529.529,0,0,1-86.43-3.41ZM-75.06,0h-1.11a1.2,1.2,0,0,1-.55-.1.676.676,0,0,1-.3-.425l-.22-.73A8.472,8.472,0,0,1-78-.645,4.645,4.645,0,0,1-78.78-.2a3.953,3.953,0,0,1-.85.27,5.114,5.114,0,0,1-1,.09,3.94,3.94,0,0,1-1.2-.175,2.587,2.587,0,0,1-.945-.525,2.384,2.384,0,0,1-.615-.87,3.086,3.086,0,0,1-.22-1.21,2.387,2.387,0,0,1,.305-1.145,2.87,2.87,0,0,1,1.015-1.02A6.491,6.491,0,0,1-80.4-5.54a13.358,13.358,0,0,1,2.93-.34v-.6A2.264,2.264,0,0,0-77.9-8.005,1.594,1.594,0,0,0-79.17-8.5a3.061,3.061,0,0,0-1,.14,3.868,3.868,0,0,0-.695.315q-.295.175-.545.315a1.106,1.106,0,0,1-.55.14.715.715,0,0,1-.43-.13,1.023,1.023,0,0,1-.29-.32l-.45-.79a6.1,6.1,0,0,1,4.27-1.62,4.126,4.126,0,0,1,1.605.3,3.412,3.412,0,0,1,1.195.82,3.509,3.509,0,0,1,.745,1.255,4.822,4.822,0,0,1,.255,1.6Zm-4.8-1.54a3.277,3.277,0,0,0,.7-.07,2.652,2.652,0,0,0,.6-.21A3.216,3.216,0,0,0-78-2.165a4.994,4.994,0,0,0,.535-.485V-4.38a13.525,13.525,0,0,0-1.8.185,4.8,4.8,0,0,0-1.165.345,1.5,1.5,0,0,0-.625.49,1.085,1.085,0,0,0-.185.61,1.072,1.072,0,0,0,.385.93A1.669,1.669,0,0,0-79.86-1.54ZM-72.63,0V-10.26h1.45a.777.777,0,0,1,.53.14.805.805,0,0,1,.2.48l.15,1.24a4.874,4.874,0,0,1,1.29-1.5,2.715,2.715,0,0,1,1.66-.55,2.145,2.145,0,0,1,1.26.35l-.32,1.85a.382.382,0,0,1-.13.255.44.44,0,0,1-.27.075,1.684,1.684,0,0,1-.41-.07,2.744,2.744,0,0,0-.69-.07,2.1,2.1,0,0,0-1.32.425,3.272,3.272,0,0,0-.93,1.245V0Zm8.2,0V-14.86h2.47V-9a4.869,4.869,0,0,1,1.38-1.035,3.977,3.977,0,0,1,1.8-.385,3.4,3.4,0,0,1,1.535.345,3.415,3.415,0,0,1,1.2,1.005,4.815,4.815,0,0,1,.78,1.63,8.2,8.2,0,0,1,.275,2.23,7.029,7.029,0,0,1-.31,2.13,5.212,5.212,0,0,1-.885,1.7,4.089,4.089,0,0,1-1.39,1.125A4.045,4.045,0,0,1-59.4.15a3.634,3.634,0,0,1-.86-.095,3.041,3.041,0,0,1-.71-.265,3.026,3.026,0,0,1-.6-.415,5.1,5.1,0,0,1-.525-.545l-.11.69a.62.62,0,0,1-.205.37.639.639,0,0,1-.4.11Zm4.8-8.5a2.523,2.523,0,0,0-1.315.325,3.8,3.8,0,0,0-1.015.915v4.6a2.351,2.351,0,0,0,.915.725,2.782,2.782,0,0,0,1.075.205,2.36,2.36,0,0,0,1.01-.21,1.979,1.979,0,0,0,.765-.64,3.166,3.166,0,0,0,.485-1.085,6.2,6.2,0,0,0,.17-1.545,6.859,6.859,0,0,0-.145-1.525A2.946,2.946,0,0,0-58.1-7.75a1.639,1.639,0,0,0-.655-.57A2.043,2.043,0,0,0-59.63-8.5Zm10.95-1.92a5.623,5.623,0,0,1,2.085.37A4.5,4.5,0,0,1-45-9a4.648,4.648,0,0,1,1.02,1.66,6.314,6.314,0,0,1,.36,2.19,6.345,6.345,0,0,1-.36,2.2A4.751,4.751,0,0,1-45-1.28a4.431,4.431,0,0,1-1.6,1.06A5.623,5.623,0,0,1-48.68.15a5.662,5.662,0,0,1-2.09-.37,4.471,4.471,0,0,1-1.6-1.06A4.771,4.771,0,0,1-53.4-2.95a6.267,6.267,0,0,1-.365-2.2A6.236,6.236,0,0,1-53.4-7.34,4.668,4.668,0,0,1-52.375-9a4.536,4.536,0,0,1,1.6-1.05A5.662,5.662,0,0,1-48.68-10.42Zm0,8.67a2.172,2.172,0,0,0,1.9-.86,4.312,4.312,0,0,0,.615-2.52,4.361,4.361,0,0,0-.615-2.53,2.163,2.163,0,0,0-1.9-.87,2.193,2.193,0,0,0-1.92.875,4.338,4.338,0,0,0-.62,2.525,4.289,4.289,0,0,0,.62,2.515A2.2,2.2,0,0,0-48.68-1.75ZM-41.69,0V-10.26h1.51a.607.607,0,0,1,.63.45l.17.81a5.626,5.626,0,0,1,.655-.58,4.573,4.573,0,0,1,.73-.45,3.719,3.719,0,0,1,.825-.29,4.331,4.331,0,0,1,.96-.1,3.678,3.678,0,0,1,1.49.285,2.944,2.944,0,0,1,1.085.8,3.517,3.517,0,0,1,.66,1.23A5.227,5.227,0,0,1-32.75-6.53V0h-2.47V-6.53a2.191,2.191,0,0,0-.435-1.455A1.612,1.612,0,0,0-36.96-8.5a2.572,2.572,0,0,0-1.2.29,4.3,4.3,0,0,0-1.06.79V0Zm23.12-11.83a.742.742,0,0,1-.255.31.641.641,0,0,1-.345.09.877.877,0,0,1-.45-.155q-.25-.155-.59-.345a4.818,4.818,0,0,0-.8-.345,3.341,3.341,0,0,0-1.075-.155,3.16,3.16,0,0,0-.975.135,2.064,2.064,0,0,0-.7.375,1.5,1.5,0,0,0-.425.575,1.887,1.887,0,0,0-.14.735,1.278,1.278,0,0,0,.285.85,2.38,2.38,0,0,0,.755.58,7.007,7.007,0,0,0,1.07.43q.6.19,1.225.4a11.8,11.8,0,0,1,1.225.5,4.245,4.245,0,0,1,1.07.72,3.263,3.263,0,0,1,.755,1.065,3.7,3.7,0,0,1,.285,1.53,4.985,4.985,0,0,1-.335,1.835,4.233,4.233,0,0,1-.98,1.49,4.616,4.616,0,0,1-1.575,1A5.8,5.8,0,0,1-22.67.16,6.868,6.868,0,0,1-24.03.025,7.159,7.159,0,0,1-25.315-.36a6.71,6.71,0,0,1-1.15-.6,5.659,5.659,0,0,1-.955-.78l.78-1.29a1,1,0,0,1,.265-.235.647.647,0,0,1,.345-.1.954.954,0,0,1,.54.2q.29.205.685.455a5.256,5.256,0,0,0,.93.455,3.6,3.6,0,0,0,1.285.2,2.638,2.638,0,0,0,1.78-.545,1.957,1.957,0,0,0,.63-1.565,1.453,1.453,0,0,0-.285-.93,2.3,2.3,0,0,0-.755-.605A5.637,5.637,0,0,0-22.29-6.1q-.6-.17-1.22-.37a10.52,10.52,0,0,1-1.22-.48,3.952,3.952,0,0,1-1.07-.73,3.322,3.322,0,0,1-.755-1.125,4.287,4.287,0,0,1-.285-1.665,3.941,3.941,0,0,1,.315-1.54,3.943,3.943,0,0,1,.92-1.33,4.541,4.541,0,0,1,1.485-.93,5.406,5.406,0,0,1,2.01-.35,6.745,6.745,0,0,1,2.36.4,5.328,5.328,0,0,1,1.84,1.12Zm7.08,1.41a4.982,4.982,0,0,1,1.785.31A3.909,3.909,0,0,1-8.3-9.2a4.134,4.134,0,0,1,.92,1.46A5.513,5.513,0,0,1-7.05-5.77a3.574,3.574,0,0,1-.025.465.744.744,0,0,1-.09.29.364.364,0,0,1-.175.15.746.746,0,0,1-.28.045h-6.34a3.533,3.533,0,0,0,.85,2.32,2.649,2.649,0,0,0,1.96.74,3.4,3.4,0,0,0,1.035-.14,4.853,4.853,0,0,0,.76-.31q.325-.17.57-.31a.956.956,0,0,1,.475-.14.535.535,0,0,1,.26.06.574.574,0,0,1,.19.17l.72.9a4.117,4.117,0,0,1-.92.805,5.16,5.16,0,0,1-1.065.52,5.821,5.821,0,0,1-1.13.275A8.091,8.091,0,0,1-11.37.15a5.481,5.481,0,0,1-1.99-.355,4.455,4.455,0,0,1-1.6-1.05,4.926,4.926,0,0,1-1.07-1.72,6.656,6.656,0,0,1-.39-2.375,5.679,5.679,0,0,1,.34-1.975,4.749,4.749,0,0,1,.975-1.61,4.59,4.59,0,0,1,1.55-1.085A5.105,5.105,0,0,1-11.49-10.42Zm.05,1.77a2.284,2.284,0,0,0-1.69.61,3.009,3.009,0,0,0-.78,1.73h4.64a3.078,3.078,0,0,0-.13-.9,2.088,2.088,0,0,0-.4-.745,1.893,1.893,0,0,0-.68-.505A2.316,2.316,0,0,0-11.44-8.65ZM3.69-10.26V3.35H1.22V-1.29a5.473,5.473,0,0,1-.655.595,4.06,4.06,0,0,1-.735.45A4.211,4.211,0,0,1-1,.045a4.087,4.087,0,0,1-.95.1A3.4,3.4,0,0,1-3.49-.2a3.431,3.431,0,0,1-1.2-1.015,4.865,4.865,0,0,1-.78-1.645A8.308,8.308,0,0,1-5.75-5.1a6.994,6.994,0,0,1,.31-2.12,5.158,5.158,0,0,1,.89-1.7,4.153,4.153,0,0,1,1.39-1.125,4.013,4.013,0,0,1,1.82-.4,4.167,4.167,0,0,1,.875.085,3.3,3.3,0,0,1,.73.245,3.278,3.278,0,0,1,.615.38,4.706,4.706,0,0,1,.54.5l.13-.57a.514.514,0,0,1,.22-.34.738.738,0,0,1,.41-.11Zm-4.8,8.45A2.527,2.527,0,0,0,.2-2.13a3.891,3.891,0,0,0,1.02-.91v-4.6a2.431,2.431,0,0,0-.915-.72A2.7,2.7,0,0,0-.76-8.57a2.394,2.394,0,0,0-1.015.21,1.985,1.985,0,0,0-.77.635,3.11,3.11,0,0,0-.485,1.08A6.2,6.2,0,0,0-3.2-5.1a6.859,6.859,0,0,0,.145,1.525,3,3,0,0,0,.415,1.02,1.582,1.582,0,0,0,.66.57A2.1,2.1,0,0,0-1.11-1.81Zm9.73-8.45v6.52a2.191,2.191,0,0,0,.435,1.455,1.612,1.612,0,0,0,1.305.515,2.609,2.609,0,0,0,1.2-.285,4.2,4.2,0,0,0,1.06-.785v-7.42h2.47V0H13.58a.607.607,0,0,1-.63-.45l-.17-.82a7.152,7.152,0,0,1-.66.585,3.981,3.981,0,0,1-.725.45,4.066,4.066,0,0,1-.83.29A4.151,4.151,0,0,1,9.61.16,3.643,3.643,0,0,1,8.125-.125,2.974,2.974,0,0,1,7.04-.93a3.525,3.525,0,0,1-.665-1.235A5.227,5.227,0,0,1,6.15-3.74v-6.52Zm13.35-.16a4.982,4.982,0,0,1,1.785.31A3.909,3.909,0,0,1,25.16-9.2a4.134,4.134,0,0,1,.92,1.46,5.513,5.513,0,0,1,.33,1.975,3.574,3.574,0,0,1-.025.465.744.744,0,0,1-.09.29.364.364,0,0,1-.175.15.746.746,0,0,1-.28.045H19.5a3.533,3.533,0,0,0,.85,2.32,2.649,2.649,0,0,0,1.96.74,3.4,3.4,0,0,0,1.035-.14,4.853,4.853,0,0,0,.76-.31q.325-.17.57-.31a.956.956,0,0,1,.475-.14.535.535,0,0,1,.26.06.574.574,0,0,1,.19.17l.72.9a4.117,4.117,0,0,1-.92.805,5.16,5.16,0,0,1-1.065.52,5.821,5.821,0,0,1-1.13.275A8.091,8.091,0,0,1,22.09.15,5.481,5.481,0,0,1,20.1-.205a4.455,4.455,0,0,1-1.6-1.05,4.926,4.926,0,0,1-1.07-1.72,6.656,6.656,0,0,1-.39-2.375,5.679,5.679,0,0,1,.34-1.975,4.749,4.749,0,0,1,.975-1.61,4.59,4.59,0,0,1,1.55-1.085A5.106,5.106,0,0,1,21.97-10.42Zm.05,1.77a2.284,2.284,0,0,0-1.69.61,3.009,3.009,0,0,0-.78,1.73h4.64a3.078,3.078,0,0,0-.13-.9,2.087,2.087,0,0,0-.4-.745,1.893,1.893,0,0,0-.68-.505A2.316,2.316,0,0,0,22.02-8.65Zm12.49.39a.659.659,0,0,1-.21.225.544.544,0,0,1-.28.065.882.882,0,0,1-.385-.1q-.2-.1-.475-.225a4.351,4.351,0,0,0-.615-.225,2.946,2.946,0,0,0-.815-.1,1.9,1.9,0,0,0-1.15.31.962.962,0,0,0-.42.81.773.773,0,0,0,.215.555,1.933,1.933,0,0,0,.57.4,5.579,5.579,0,0,0,.805.3q.45.135.92.295t.92.365a3.208,3.208,0,0,1,.805.52,2.415,2.415,0,0,1,.57.755,2.4,2.4,0,0,1,.215,1.06,3.405,3.405,0,0,1-.27,1.365,3,3,0,0,1-.79,1.08,3.7,3.7,0,0,1-1.285.71A5.544,5.544,0,0,1,31.08.16a5.587,5.587,0,0,1-1.035-.1,6.109,6.109,0,0,1-.97-.265,5.368,5.368,0,0,1-.86-.4,4.174,4.174,0,0,1-.695-.5l.57-.94a.806.806,0,0,1,.26-.26.729.729,0,0,1,.38-.09.8.8,0,0,1,.435.13q.205.13.475.28a4.246,4.246,0,0,0,.635.28,2.794,2.794,0,0,0,.925.13,2.4,2.4,0,0,0,.755-.105,1.6,1.6,0,0,0,.52-.275,1.032,1.032,0,0,0,.3-.4,1.184,1.184,0,0,0,.1-.465.83.83,0,0,0-.215-.59,1.882,1.882,0,0,0-.57-.4,5.505,5.505,0,0,0-.81-.305q-.455-.135-.93-.3a8.6,8.6,0,0,1-.93-.375,3.17,3.17,0,0,1-.81-.545,2.467,2.467,0,0,1-.57-.81,2.827,2.827,0,0,1-.215-1.16,2.955,2.955,0,0,1,.25-1.2,2.815,2.815,0,0,1,.735-.995,3.65,3.65,0,0,1,1.21-.68,5.04,5.04,0,0,1,1.675-.255,5.128,5.128,0,0,1,1.93.35,4.359,4.359,0,0,1,1.45.92ZM40.53.16A2.7,2.7,0,0,1,38.48-.6a2.9,2.9,0,0,1-.72-2.085V-8.41H36.72a.5.5,0,0,1-.345-.13.5.5,0,0,1-.145-.39v-.98l1.65-.27.52-2.8a.5.5,0,0,1,.185-.31.587.587,0,0,1,.365-.11h1.28v3.23h2.7v1.76h-2.7v5.56a1.09,1.09,0,0,0,.24.75.814.814,0,0,0,.64.27,1.162,1.162,0,0,0,.385-.055A2.119,2.119,0,0,0,41.765-2q.115-.06.205-.115a.343.343,0,0,1,.18-.055.283.283,0,0,1,.18.055.834.834,0,0,1,.15.165l.74,1.2a3.739,3.739,0,0,1-1.24.68A4.615,4.615,0,0,1,40.53.16ZM44.9,0V-10.26h1.45a.777.777,0,0,1,.53.14.805.805,0,0,1,.2.48l.15,1.24a4.875,4.875,0,0,1,1.29-1.5,2.715,2.715,0,0,1,1.66-.55,2.145,2.145,0,0,1,1.26.35l-.32,1.85a.382.382,0,0,1-.13.255.44.44,0,0,1-.27.075,1.684,1.684,0,0,1-.41-.07,2.744,2.744,0,0,0-.69-.07,2.1,2.1,0,0,0-1.32.425,3.272,3.272,0,0,0-.93,1.245V0ZM60.82,0H59.71a1.2,1.2,0,0,1-.55-.1.676.676,0,0,1-.3-.425l-.22-.73a8.471,8.471,0,0,1-.765.615A4.645,4.645,0,0,1,57.1-.2a3.953,3.953,0,0,1-.85.27,5.114,5.114,0,0,1-1,.09,3.939,3.939,0,0,1-1.2-.175A2.587,2.587,0,0,1,53.1-.54a2.384,2.384,0,0,1-.615-.87,3.086,3.086,0,0,1-.22-1.21,2.387,2.387,0,0,1,.305-1.145,2.87,2.87,0,0,1,1.015-1.02,6.491,6.491,0,0,1,1.89-.755,13.358,13.358,0,0,1,2.93-.34v-.6a2.264,2.264,0,0,0-.435-1.525A1.594,1.594,0,0,0,56.71-8.5a3.061,3.061,0,0,0-1,.14,3.869,3.869,0,0,0-.695.315q-.3.175-.545.315a1.106,1.106,0,0,1-.55.14.715.715,0,0,1-.43-.13,1.023,1.023,0,0,1-.29-.32l-.45-.79a6.1,6.1,0,0,1,4.27-1.62,4.126,4.126,0,0,1,1.6.3,3.412,3.412,0,0,1,1.195.82,3.509,3.509,0,0,1,.745,1.255,4.823,4.823,0,0,1,.255,1.6Zm-4.8-1.54a3.277,3.277,0,0,0,.7-.07,2.652,2.652,0,0,0,.6-.21,3.216,3.216,0,0,0,.55-.345,4.994,4.994,0,0,0,.535-.485V-4.38a13.525,13.525,0,0,0-1.805.185,4.8,4.8,0,0,0-1.165.345,1.5,1.5,0,0,0-.625.49,1.085,1.085,0,0,0-.185.61,1.072,1.072,0,0,0,.385.93A1.669,1.669,0,0,0,56.02-1.54ZM66.62.16A2.7,2.7,0,0,1,64.57-.6a2.9,2.9,0,0,1-.72-2.085V-8.41H62.81a.5.5,0,0,1-.345-.13.5.5,0,0,1-.145-.39v-.98l1.65-.27.52-2.8a.5.5,0,0,1,.185-.31.587.587,0,0,1,.365-.11h1.28v3.23h2.7v1.76h-2.7v5.56a1.09,1.09,0,0,0,.24.75.814.814,0,0,0,.64.27,1.162,1.162,0,0,0,.385-.055A2.119,2.119,0,0,0,67.855-2q.115-.06.2-.115a.343.343,0,0,1,.18-.055.283.283,0,0,1,.18.055.834.834,0,0,1,.15.165l.74,1.2a3.739,3.739,0,0,1-1.24.68A4.615,4.615,0,0,1,66.62.16Zm7-10.42V0H71.15V-10.26Zm.37-2.99a1.407,1.407,0,0,1-.13.6,1.649,1.649,0,0,1-.345.49,1.649,1.649,0,0,1-.505.335,1.549,1.549,0,0,1-.62.125,1.49,1.49,0,0,1-.605-.125,1.6,1.6,0,0,1-.495-.335,1.62,1.62,0,0,1-.335-.49,1.455,1.455,0,0,1-.125-.6,1.549,1.549,0,0,1,.125-.62,1.587,1.587,0,0,1,.335-.5,1.6,1.6,0,0,1,.495-.335,1.49,1.49,0,0,1,.605-.125,1.549,1.549,0,0,1,.62.125,1.649,1.649,0,0,1,.505.335,1.613,1.613,0,0,1,.345.5A1.5,1.5,0,0,1,73.99-13.25Zm6.8,2.83a5.623,5.623,0,0,1,2.085.37A4.5,4.5,0,0,1,84.47-9a4.648,4.648,0,0,1,1.02,1.66,6.314,6.314,0,0,1,.36,2.19,6.345,6.345,0,0,1-.36,2.2,4.751,4.751,0,0,1-1.02,1.67A4.431,4.431,0,0,1,82.875-.22,5.623,5.623,0,0,1,80.79.15,5.662,5.662,0,0,1,78.7-.22,4.471,4.471,0,0,1,77.1-1.28a4.771,4.771,0,0,1-1.03-1.67,6.267,6.267,0,0,1-.365-2.2,6.236,6.236,0,0,1,.365-2.19A4.668,4.668,0,0,1,77.1-9,4.537,4.537,0,0,1,78.7-10.05,5.662,5.662,0,0,1,80.79-10.42Zm0,8.67a2.172,2.172,0,0,0,1.9-.86A4.312,4.312,0,0,0,83.3-5.13a4.361,4.361,0,0,0-.615-2.53,2.163,2.163,0,0,0-1.9-.87,2.193,2.193,0,0,0-1.92.875,4.338,4.338,0,0,0-.62,2.525,4.289,4.289,0,0,0,.62,2.515A2.2,2.2,0,0,0,80.79-1.75ZM87.78,0V-10.26h1.51a.607.607,0,0,1,.63.45l.17.81a5.627,5.627,0,0,1,.655-.58,4.574,4.574,0,0,1,.73-.45,3.719,3.719,0,0,1,.825-.29,4.331,4.331,0,0,1,.96-.1,3.678,3.678,0,0,1,1.49.285,2.944,2.944,0,0,1,1.085.8,3.517,3.517,0,0,1,.66,1.23A5.227,5.227,0,0,1,96.72-6.53V0H94.25V-6.53a2.191,2.191,0,0,0-.435-1.455A1.612,1.612,0,0,0,92.51-8.5a2.572,2.572,0,0,0-1.2.29,4.3,4.3,0,0,0-1.06.79V0Z" transform="translate(311 1990.951)" fill="#fff"></path></g></svg>