<svg xmlns="http://www.w3.org/2000/svg" width="129" height="47.077" viewBox="0 0 129 47.077"><g id="Group_49449" data-name="Group 49449" transform="translate(-980 -2070.461)"><path id="Path_71638" data-name="Path 71638" d="M13.077,0H51L37.923,47.077H0Z" transform="translate(1049 2070.461)" fill="#e3cdeb"></path><path id="Path_71635" data-name="Path 71635" d="M10,0H129L119,36H0Z" transform="translate(980 2076)" fill="#7f3f97"></path><path id="Path_71971" data-name="Path 71971" d="M11.4-3.41a.5.5,0,0,1,.38.17l1.06,1.15A5.822,5.822,0,0,1,10.675-.42,7.461,7.461,0,0,1,7.59.16,7.29,7.29,0,0,1,4.7-.39,6.381,6.381,0,0,1,2.5-1.92,6.7,6.7,0,0,1,1.105-4.26,8.784,8.784,0,0,1,.62-7.23a7.994,7.994,0,0,1,.54-2.985A6.84,6.84,0,0,1,2.68-12.55a6.879,6.879,0,0,1,2.345-1.525A8.062,8.062,0,0,1,8.04-14.62a7.119,7.119,0,0,1,2.815.515A6.579,6.579,0,0,1,12.92-12.74l-.9,1.25a.816.816,0,0,1-.205.21.581.581,0,0,1-.345.09.786.786,0,0,1-.47-.18,5.819,5.819,0,0,0-.61-.39,4.972,4.972,0,0,0-.935-.39,4.811,4.811,0,0,0-1.435-.18,4.842,4.842,0,0,0-1.875.355,4.167,4.167,0,0,0-1.47,1.015,4.67,4.67,0,0,0-.96,1.6A6.164,6.164,0,0,0,3.37-7.23a6.334,6.334,0,0,0,.345,2.17,4.771,4.771,0,0,0,.935,1.6,3.993,3.993,0,0,0,1.39.995,4.3,4.3,0,0,0,1.72.345,7.492,7.492,0,0,0,.995-.06,4.224,4.224,0,0,0,.82-.19,3.64,3.64,0,0,0,.71-.335,4.436,4.436,0,0,0,.665-.505.948.948,0,0,1,.21-.145A.529.529,0,0,1,11.4-3.41Zm5.96-6.85V0H14.89V-10.26Zm.37-2.99a1.407,1.407,0,0,1-.13.6,1.649,1.649,0,0,1-.345.49,1.649,1.649,0,0,1-.5.335,1.549,1.549,0,0,1-.62.125,1.49,1.49,0,0,1-.605-.125,1.6,1.6,0,0,1-.495-.335,1.62,1.62,0,0,1-.335-.49,1.455,1.455,0,0,1-.125-.6,1.549,1.549,0,0,1,.125-.62,1.587,1.587,0,0,1,.335-.5,1.6,1.6,0,0,1,.495-.335,1.49,1.49,0,0,1,.605-.125,1.549,1.549,0,0,1,.62.125,1.649,1.649,0,0,1,.5.335,1.613,1.613,0,0,1,.345.5A1.5,1.5,0,0,1,17.73-13.25ZM20.15,0V-10.26H21.6a.777.777,0,0,1,.53.14.805.805,0,0,1,.2.48l.15,1.24a4.875,4.875,0,0,1,1.29-1.5,2.715,2.715,0,0,1,1.66-.55,2.145,2.145,0,0,1,1.26.35l-.32,1.85a.382.382,0,0,1-.13.255.44.44,0,0,1-.27.075,1.684,1.684,0,0,1-.41-.07,2.744,2.744,0,0,0-.69-.07,2.1,2.1,0,0,0-1.32.425,3.272,3.272,0,0,0-.93,1.245V0ZM35.53-8.09a1.231,1.231,0,0,1-.215.22.5.5,0,0,1-.3.08.679.679,0,0,1-.37-.115q-.18-.115-.43-.26a3.215,3.215,0,0,0-.6-.26,2.734,2.734,0,0,0-.855-.115,2.608,2.608,0,0,0-1.14.235,2.161,2.161,0,0,0-.815.675,3.042,3.042,0,0,0-.485,1.065,5.719,5.719,0,0,0-.16,1.415,5.548,5.548,0,0,0,.175,1.46,3.122,3.122,0,0,0,.505,1.075,2.173,2.173,0,0,0,.8.66,2.424,2.424,0,0,0,1.06.225,2.628,2.628,0,0,0,.955-.145,3.013,3.013,0,0,0,.615-.32q.25-.175.435-.32a.656.656,0,0,1,.415-.145.5.5,0,0,1,.45.23l.71.9a4.466,4.466,0,0,1-.89.805,4.811,4.811,0,0,1-.995.52A5.052,5.052,0,0,1,33.33.07a7.565,7.565,0,0,1-1.09.08,4.551,4.551,0,0,1-1.79-.355A4.179,4.179,0,0,1,28.985-1.24,4.988,4.988,0,0,1,28-2.9,6.433,6.433,0,0,1,27.63-5.15a6.525,6.525,0,0,1,.325-2.1,4.746,4.746,0,0,1,.955-1.67,4.379,4.379,0,0,1,1.56-1.1,5.374,5.374,0,0,1,2.14-.4,5.091,5.091,0,0,1,2.015.37A4.924,4.924,0,0,1,36.18-8.99Zm4.59-2.17v6.52a2.191,2.191,0,0,0,.435,1.455,1.612,1.612,0,0,0,1.305.515,2.609,2.609,0,0,0,1.2-.285,4.2,4.2,0,0,0,1.06-.785v-7.42h2.47V0H45.08a.607.607,0,0,1-.63-.45l-.17-.82a7.152,7.152,0,0,1-.66.585,3.981,3.981,0,0,1-.725.45,4.066,4.066,0,0,1-.83.29A4.151,4.151,0,0,1,41.11.16a3.643,3.643,0,0,1-1.485-.285A2.974,2.974,0,0,1,38.54-.93a3.525,3.525,0,0,1-.665-1.235A5.227,5.227,0,0,1,37.65-3.74v-6.52Zm11.74-4.6V0H49.39V-14.86ZM62.69,0H61.58a1.2,1.2,0,0,1-.55-.1.676.676,0,0,1-.3-.425l-.22-.73a8.471,8.471,0,0,1-.765.615A4.645,4.645,0,0,1,58.97-.2a3.953,3.953,0,0,1-.85.27,5.114,5.114,0,0,1-1,.09,3.939,3.939,0,0,1-1.2-.175,2.587,2.587,0,0,1-.945-.525,2.384,2.384,0,0,1-.615-.87,3.086,3.086,0,0,1-.22-1.21,2.387,2.387,0,0,1,.305-1.145,2.87,2.87,0,0,1,1.015-1.02,6.491,6.491,0,0,1,1.89-.755,13.358,13.358,0,0,1,2.93-.34v-.6a2.264,2.264,0,0,0-.435-1.525A1.594,1.594,0,0,0,58.58-8.5a3.061,3.061,0,0,0-1,.14,3.869,3.869,0,0,0-.695.315q-.3.175-.545.315a1.106,1.106,0,0,1-.55.14.715.715,0,0,1-.43-.13,1.023,1.023,0,0,1-.29-.32l-.45-.79a6.1,6.1,0,0,1,4.27-1.62,4.126,4.126,0,0,1,1.6.3,3.412,3.412,0,0,1,1.195.82,3.509,3.509,0,0,1,.745,1.255,4.823,4.823,0,0,1,.255,1.6Zm-4.8-1.54a3.277,3.277,0,0,0,.7-.07,2.652,2.652,0,0,0,.6-.21,3.216,3.216,0,0,0,.55-.345,4.994,4.994,0,0,0,.535-.485V-4.38a13.525,13.525,0,0,0-1.805.185,4.8,4.8,0,0,0-1.165.345,1.5,1.5,0,0,0-.625.49,1.085,1.085,0,0,0-.185.61,1.072,1.072,0,0,0,.385.93A1.669,1.669,0,0,0,57.89-1.54ZM65.12,0V-10.26h1.45a.777.777,0,0,1,.53.14.805.805,0,0,1,.2.48l.15,1.24a4.875,4.875,0,0,1,1.29-1.5,2.715,2.715,0,0,1,1.66-.55,2.145,2.145,0,0,1,1.26.35l-.32,1.85a.382.382,0,0,1-.13.255.44.44,0,0,1-.27.075,1.684,1.684,0,0,1-.41-.07,2.744,2.744,0,0,0-.69-.07,2.1,2.1,0,0,0-1.32.425,3.272,3.272,0,0,0-.93,1.245V0Zm10.8-10.26V0H73.45V-10.26Zm.37-2.99a1.407,1.407,0,0,1-.13.6,1.649,1.649,0,0,1-.345.49,1.649,1.649,0,0,1-.505.335,1.549,1.549,0,0,1-.62.125,1.49,1.49,0,0,1-.605-.125,1.6,1.6,0,0,1-.495-.335,1.62,1.62,0,0,1-.335-.49,1.455,1.455,0,0,1-.125-.6,1.549,1.549,0,0,1,.125-.62,1.587,1.587,0,0,1,.335-.5,1.6,1.6,0,0,1,.495-.335,1.49,1.49,0,0,1,.605-.125,1.549,1.549,0,0,1,.62.125,1.649,1.649,0,0,1,.505.335,1.613,1.613,0,0,1,.345.5A1.5,1.5,0,0,1,76.29-13.25ZM82.08.16A2.7,2.7,0,0,1,80.03-.6a2.9,2.9,0,0,1-.72-2.085V-8.41H78.27a.5.5,0,0,1-.345-.13.5.5,0,0,1-.145-.39v-.98l1.65-.27.52-2.8a.5.5,0,0,1,.185-.31.587.587,0,0,1,.365-.11h1.28v3.23h2.7v1.76h-2.7v5.56a1.09,1.09,0,0,0,.24.75.814.814,0,0,0,.64.27,1.162,1.162,0,0,0,.385-.055A2.119,2.119,0,0,0,83.315-2q.115-.06.2-.115a.343.343,0,0,1,.18-.055.283.283,0,0,1,.18.055.834.834,0,0,1,.15.165l.74,1.2a3.739,3.739,0,0,1-1.24.68A4.615,4.615,0,0,1,82.08.16Zm8.01,2.66a.955.955,0,0,1-.285.395.872.872,0,0,1-.535.135H87.43L89.35-.76l-4.15-9.5h2.16a.678.678,0,0,1,.46.14.92.92,0,0,1,.24.32l2.19,5.32a4.693,4.693,0,0,1,.19.54q.08.28.14.56.08-.29.175-.56t.205-.55L93.02-9.8a.728.728,0,0,1,.265-.33.7.7,0,0,1,.415-.13h1.98Z" transform="translate(996 2102)" fill="#fff"></path></g></svg>