<svg xmlns="http://www.w3.org/2000/svg" width="35" height="35" viewBox="0 0 35 35"><g id="Group_49412" data-name="Group 49412" transform="translate(-786 -5949)"><g id="Ellipse_118" data-name="Ellipse 118" transform="translate(786 5949)" fill="none" stroke="#dcd0e5" stroke-width="1"><circle cx="17.5" cy="17.5" r="17.5" stroke="none"></circle><circle cx="17.5" cy="17.5" r="17" fill="none"></circle></g><g id="Group_17701" data-name="Group 17701" transform="translate(794.272 5960.227)"><g id="Group_17702" data-name="Group 17702"><path id="Path_2770" data-name="Path 2770" d="M0,50.813V42.207c.052.039.1.081.155.117l1.592,1.064q2.382,1.588,4.765,3.174c.449.3.886.617,1.353.888a2.716,2.716,0,0,0,1.729.329,2.806,2.806,0,0,0,1.238-.482q1.746-1.167,3.493-2.331,1.981-1.321,3.964-2.641c.043-.029.084-.1.137-.07s.023.1.023.152q0,3.939,0,7.878a2.569,2.569,0,0,1-.023.377,1.683,1.683,0,0,1-.97,1.343,1.848,1.848,0,0,1-.826.165H1.849a1.971,1.971,0,0,1-.647-.085A1.625,1.625,0,0,1,.055,50.829c-.012-.058-.028-.038-.055-.016" transform="translate(0 -38.348)" fill="#dcd0e5"></path><path id="Path_2771" data-name="Path 2771" d="M0,1.3l.035.132c.013-.072.02-.122.032-.172A1.7,1.7,0,0,1,1.5.02C1.661,0,1.824,0,1.988,0h14.63A1.776,1.776,0,0,1,17.91.475a1.64,1.64,0,0,1,.531,1.266,1.6,1.6,0,0,1-.749,1.33L15.416,4.587,10.328,7.981a2.12,2.12,0,0,1-.824.373,1.643,1.643,0,0,1-1.211-.261Q7.259,7.409,6.229,6.719,3.518,4.913.807,3.107a1.716,1.716,0,0,1-.68-.784,1.264,1.264,0,0,1-.079-.316c-.033,0-.025.041-.047.049V1.3" fill="#dcd0e5"></path></g></g></g></svg>