<svg xmlns="http://www.w3.org/2000/svg" width="129" height="47.077" viewBox="0 0 129 47.077"><g id="Group_49451" data-name="Group 49451" transform="translate(-620 -2337.461)"><path id="Path_71639" data-name="Path 71639" d="M13.077,0H51L37.923,47.077H0Z" transform="translate(690.471 2337.461)" fill="#e3cdeb"></path><path id="Path_71636" data-name="Path 71636" d="M10,0H129L119,36H0Z" transform="translate(620 2343)" fill="#7f3f97"></path><path id="Path_71973" data-name="Path 71973" d="M2.87-14.46a2.487,2.487,0,0,1,.3.015.7.7,0,0,1,.215.06.721.721,0,0,1,.185.13,2.084,2.084,0,0,1,.2.225l7.59,9.67q-.04-.35-.055-.685T11.29-5.67v-8.79h2.37V0H12.27a1.232,1.232,0,0,1-.53-.1,1.18,1.18,0,0,1-.41-.36L3.77-10.09q.03.32.045.635t.015.575V0H1.46V-14.46Zm17.81,4.04a4.982,4.982,0,0,1,1.785.31,3.909,3.909,0,0,1,1.4.905,4.134,4.134,0,0,1,.92,1.46,5.513,5.513,0,0,1,.33,1.975A3.574,3.574,0,0,1,25.1-5.3a.744.744,0,0,1-.09.29.364.364,0,0,1-.175.15.746.746,0,0,1-.28.045H18.21a3.533,3.533,0,0,0,.85,2.32,2.649,2.649,0,0,0,1.96.74,3.4,3.4,0,0,0,1.035-.14,4.853,4.853,0,0,0,.76-.31q.325-.17.57-.31a.956.956,0,0,1,.475-.14.535.535,0,0,1,.26.06.574.574,0,0,1,.19.17l.72.9a4.117,4.117,0,0,1-.92.805,5.16,5.16,0,0,1-1.065.52,5.821,5.821,0,0,1-1.13.275A8.091,8.091,0,0,1,20.8.15a5.481,5.481,0,0,1-1.99-.355,4.455,4.455,0,0,1-1.6-1.05,4.926,4.926,0,0,1-1.07-1.72,6.656,6.656,0,0,1-.39-2.375,5.679,5.679,0,0,1,.34-1.975,4.749,4.749,0,0,1,.975-1.61,4.59,4.59,0,0,1,1.55-1.085A5.106,5.106,0,0,1,20.68-10.42Zm.05,1.77a2.284,2.284,0,0,0-1.69.61,3.009,3.009,0,0,0-.78,1.73H22.9a3.078,3.078,0,0,0-.13-.9,2.088,2.088,0,0,0-.4-.745,1.893,1.893,0,0,0-.68-.505A2.316,2.316,0,0,0,20.73-8.65ZM30.5.16A2.7,2.7,0,0,1,28.45-.6a2.9,2.9,0,0,1-.72-2.085V-8.41H26.69a.5.5,0,0,1-.345-.13.5.5,0,0,1-.145-.39v-.98l1.65-.27.52-2.8a.5.5,0,0,1,.185-.31.587.587,0,0,1,.365-.11H30.2v3.23h2.7v1.76H30.2v5.56a1.09,1.09,0,0,0,.24.75.814.814,0,0,0,.64.27,1.162,1.162,0,0,0,.385-.055A2.119,2.119,0,0,0,31.735-2q.115-.06.2-.115a.343.343,0,0,1,.18-.055.283.283,0,0,1,.18.055.834.834,0,0,1,.15.165l.74,1.2a3.739,3.739,0,0,1-1.24.68A4.615,4.615,0,0,1,30.5.16ZM49.2-14.46v.99a1.455,1.455,0,0,1-.26.84L41.52-2.15h7.5V0H38.03V-1.06a1.079,1.079,0,0,1,.07-.385,1.616,1.616,0,0,1,.18-.345l7.44-10.53H38.5v-2.14Zm5.82,4.04a4.982,4.982,0,0,1,1.785.31,3.909,3.909,0,0,1,1.4.905,4.134,4.134,0,0,1,.92,1.46,5.513,5.513,0,0,1,.33,1.975,3.574,3.574,0,0,1-.025.465.744.744,0,0,1-.09.29.364.364,0,0,1-.175.15.746.746,0,0,1-.28.045H52.55A3.533,3.533,0,0,0,53.4-2.5a2.649,2.649,0,0,0,1.96.74A3.4,3.4,0,0,0,56.4-1.9a4.853,4.853,0,0,0,.76-.31q.325-.17.57-.31a.956.956,0,0,1,.475-.14.535.535,0,0,1,.26.06.574.574,0,0,1,.19.17l.72.9a4.117,4.117,0,0,1-.92.805,5.16,5.16,0,0,1-1.065.52,5.821,5.821,0,0,1-1.13.275A8.091,8.091,0,0,1,55.14.15a5.481,5.481,0,0,1-1.99-.355,4.455,4.455,0,0,1-1.6-1.05,4.926,4.926,0,0,1-1.07-1.72,6.656,6.656,0,0,1-.39-2.375,5.679,5.679,0,0,1,.34-1.975,4.749,4.749,0,0,1,.975-1.61,4.59,4.59,0,0,1,1.55-1.085A5.106,5.106,0,0,1,55.02-10.42Zm.05,1.77a2.284,2.284,0,0,0-1.69.61,3.009,3.009,0,0,0-.78,1.73h4.64a3.078,3.078,0,0,0-.13-.9,2.087,2.087,0,0,0-.4-.745,1.893,1.893,0,0,0-.68-.505A2.316,2.316,0,0,0,55.07-8.65ZM61.47,0V-10.26h1.45a.777.777,0,0,1,.53.14.805.805,0,0,1,.2.48L63.8-8.4a4.874,4.874,0,0,1,1.29-1.5,2.715,2.715,0,0,1,1.66-.55,2.145,2.145,0,0,1,1.26.35l-.32,1.85a.382.382,0,0,1-.13.255.44.44,0,0,1-.27.075,1.684,1.684,0,0,1-.41-.07,2.744,2.744,0,0,0-.69-.07,2.1,2.1,0,0,0-1.32.425,3.272,3.272,0,0,0-.93,1.245V0ZM74.02-10.42a5.623,5.623,0,0,1,2.085.37A4.5,4.5,0,0,1,77.7-9a4.648,4.648,0,0,1,1.02,1.66,6.314,6.314,0,0,1,.36,2.19,6.345,6.345,0,0,1-.36,2.2A4.751,4.751,0,0,1,77.7-1.28,4.431,4.431,0,0,1,76.105-.22,5.623,5.623,0,0,1,74.02.15a5.662,5.662,0,0,1-2.09-.37,4.471,4.471,0,0,1-1.605-1.06,4.771,4.771,0,0,1-1.03-1.67,6.267,6.267,0,0,1-.365-2.2,6.236,6.236,0,0,1,.365-2.19A4.668,4.668,0,0,1,70.325-9a4.537,4.537,0,0,1,1.605-1.05A5.662,5.662,0,0,1,74.02-10.42Zm0,8.67a2.172,2.172,0,0,0,1.9-.86,4.312,4.312,0,0,0,.615-2.52,4.361,4.361,0,0,0-.615-2.53,2.163,2.163,0,0,0-1.9-.87,2.193,2.193,0,0,0-1.92.875,4.338,4.338,0,0,0-.62,2.525,4.289,4.289,0,0,0,.62,2.515A2.2,2.2,0,0,0,74.02-1.75Z" transform="translate(643 2369)" fill="#fff"></path></g></svg>