<svg xmlns="http://www.w3.org/2000/svg" width="60.195" height="63.611" viewBox="0 0 60.195 63.611"><g id="Group_450" data-name="Group 450" transform="translate(-0.2 -0.2)"><g id="Group_451" data-name="Group 451" transform="translate(1 1)"><circle id="Ellipse_14" data-name="Ellipse 14" cx="6.905" cy="6.905" r="6.905" transform="translate(22.866 14.528)" fill="none" stroke="#05ac8d" stroke-width="1.6"></circle><path id="Path_71570" data-name="Path 71570" d="M25.839,84.092V59.841A6.862,6.862,0,0,1,32.7,52.978H48.224a6.863,6.863,0,0,1,6.863,6.863V84.092" transform="translate(-10.692 -21.281)" fill="none" stroke="#05ac8d" stroke-width="1.6"></path><line id="Line_8" data-name="Line 8" y2="15.847" transform="translate(20.293 46.965)" fill="none" stroke="#05ac8d" stroke-linejoin="round" stroke-width="1.6"></line><line id="Line_9" data-name="Line 9" y2="15.847" transform="translate(38.778 46.965)" fill="none" stroke="#05ac8d" stroke-linejoin="round" stroke-width="1.6"></line><line id="Line_10" data-name="Line 10" y2="15.847" transform="translate(53.033 46.965)" fill="none" stroke="#05ac8d" stroke-linejoin="round" stroke-width="1.6"></line><line id="Line_11" data-name="Line 11" y2="15.847" transform="translate(5.611 46.965)" fill="none" stroke="#05ac8d" stroke-linejoin="round" stroke-width="1.6"></line><circle id="Ellipse_15" data-name="Ellipse 15" cx="6.905" cy="6.905" r="6.905" transform="translate(39.158 14.527)" fill="none" stroke="#05ac8d" stroke-linejoin="round" stroke-width="1.6"></circle><path id="Path_71571" data-name="Path 71571" d="M75.963,52.978h6.018a6.862,6.862,0,0,1,6.863,6.863V76.877H83.228" transform="translate(-30.249 -21.281)" fill="none" stroke="#05ac8d" stroke-linejoin="round" stroke-width="1.6"></path><circle id="Ellipse_16" data-name="Ellipse 16" cx="6.905" cy="6.905" r="6.905" transform="translate(5.627 14.528)" fill="none" stroke="#05ac8d" stroke-linejoin="round" stroke-width="1.6"></circle><circle id="Ellipse_17" data-name="Ellipse 17" cx="6.905" cy="6.905" r="6.905" transform="translate(31.486)" fill="none" stroke="#05ac8d" stroke-linejoin="round" stroke-width="1.6"></circle><circle id="Ellipse_18" data-name="Ellipse 18" cx="6.905" cy="6.905" r="6.905" transform="translate(14.246)" fill="none" stroke="#05ac8d" stroke-linejoin="round" stroke-width="1.6"></circle><path id="Path_71572" data-name="Path 71572" d="M14.491,52.978H7.863A6.862,6.862,0,0,0,1,59.841V76.877H6.616" transform="translate(-1 -21.281)" fill="none" stroke="#05ac8d" stroke-linejoin="round" stroke-width="1.6"></path><path id="Path_71573" data-name="Path 71573" d="M45.1,77.942l2.3,2.3,4.319-4.319" transform="translate(-18.207 -30.232)" fill="none" stroke="#05ac8d" stroke-linejoin="round" stroke-width="1.6"></path><path id="Path_71574" data-name="Path 71574" d="M51.6,52.978a4.937,4.937,0,1,1-9.874,0" transform="translate(-16.89 -21.281)" fill="none" stroke="#05ac8d" stroke-linejoin="round" stroke-width="1.6"></path></g></g></svg>