<svg xmlns="http://www.w3.org/2000/svg" width="35" height="35" viewBox="0 0 35 35"><g id="Group_49411" data-name="Group 49411" transform="translate(-522 -5966)"><g id="Group_17698" data-name="Group 17698" transform="translate(530.204 5974.21)"><g id="Group_17699" data-name="Group 17699" transform="translate(0 0)"><path id="Path_2769" data-name="Path 2769" d="M2,6.014a2.671,2.671,0,0,1,.937-2.129c.477-.433.917-.907,1.374-1.361a1.691,1.691,0,0,1,.867-.494,1.432,1.432,0,0,1,1.332.41c.871.849,1.738,1.7,2.578,2.582a1.452,1.452,0,0,1-.027,2.148c-.488.511-1,1-1.5,1.5-.176.176-.184.209-.085.436a9.5,9.5,0,0,0,1.5,2.3,15.074,15.074,0,0,0,3.489,3.133c.351.22.731.393,1.1.588.137.072.224-.011.312-.1.5-.5.99-1,1.488-1.489a1.548,1.548,0,0,1,1.243-.508,1.5,1.5,0,0,1,.955.446c.859.846,1.721,1.69,2.56,2.557a1.461,1.461,0,0,1,.031,2.117c-.227.257-.485.485-.726.729s-.485.472-.707.726a2.8,2.8,0,0,1-2.352.959,8.771,8.771,0,0,1-3.214-.812A20.287,20.287,0,0,1,5.463,13.78,17.816,17.816,0,0,1,2.408,8.348,6.965,6.965,0,0,1,2,6.014Z" transform="translate(-2 -2)" fill="#dcd0e5"></path></g></g><g id="Ellipse_117" data-name="Ellipse 117" transform="translate(522 5966)" fill="none" stroke="#dcd0e5" stroke-width="1"><circle cx="17.5" cy="17.5" r="17.5" stroke="none"></circle><circle cx="17.5" cy="17.5" r="17" fill="none"></circle></g></g></svg>