<svg xmlns="http://www.w3.org/2000/svg" width="65.389" height="65.64" viewBox="0 0 65.389 65.64"><g id="Group_456" data-name="Group 456" transform="translate(-3.842 -3.881)"><g id="Group_457" data-name="Group 457"><path id="Path_71579" data-name="Path 71579" d="M34.5,11.883c-2.964,2.623-6.918,3.811-9.644,6.91-.7-2.652.129-4.617,2.965-5.706,7.813-3,15.76-4.4,24.006-1.455,12.826,4.583,20.379,13.735,21.781,27.056,1.363,12.958-3.955,23.434-15.118,30.425C48.821,75.169,38.506,75.6,28.3,70.707,17.929,65.742,11.685,57.39,10.286,45.827A29.32,29.32,0,0,1,13.76,27.485a31.207,31.207,0,0,1,6.882-9.136" transform="translate(-5.4 -5.384)" fill="none" stroke="#05ac8d" stroke-linecap="round" stroke-linejoin="round" stroke-width="1.6"></path><path id="Path_71580" data-name="Path 71580" d="M72.477,15.664c-1.07.9-2.621.952-3.52,2.271-.527.773-1.512.168-2.221-.035-.2-1.239,1.284-.9,1.36-1.807-.071-.128-.119-.367-.242-.417C64.4,14.3,62.879,14.6,60.271,17.542c-.9,1.014-2.979,1.142-2.56,3.215.794.641,2.082-.786,2.9.84.277.551,1.523-.434,1.47-1.545a2.593,2.593,0,0,1,2.028-2.831c1,1.107-.726,1.668-.406,2.6.836.676,2.018-.718,2.77.462,0,.153.061.4-.009.447-1.759,1.1-3.554,2.136-5.3,3.259-1.325.853-1.679-.686-2.668-1.034-.78.81-1.123,2-2.392,2.481-1.008.381-2.243.387-3.127,1.422.171.533.684,1.285.487,1.7a1.95,1.95,0,0,1-2.008.979c-.885-.072-1.736-.148-2.138,1.114a1.237,1.237,0,0,0,.538,1.614,2.54,2.54,0,0,0,2.738-.244A23.175,23.175,0,0,0,54.93,30.22c2.241-1.612,3.389-1.173,4.4,1.606a4.476,4.476,0,0,0,.644.94c1.376-.03,1.792-.674,1.175-1.851-.345-.658-.366-1.274.264-1.591s1.144.169,1.61.649c.957.987.761,2.565,1.857,3.486l.875-1.851c.834-.225,1.02.6,1.133.932a1.9,1.9,0,0,0,2.58,1.33c1.43-.405,2.179-.09,2.321,1.424a2.283,2.283,0,0,1-2.31,2.538,17.006,17.006,0,0,1-4.855-.9c-.5-.12-1-.718-1.626-.036-1.535,1.667-2.631.194-3.657-.707-.907-.8-1.1-2.341-2.8-2.306-2.336.047-4.772-.136-6.665,1.448A19.2,19.2,0,0,0,45.2,40.825c-1.083,1.987-.77,6.109.7,8.1,1.581,2.136,3.507,3.417,6.235,2.505a3.869,3.869,0,0,1,3.219.3,5.385,5.385,0,0,0,2.479.434,6.1,6.1,0,0,1,.054,1.824,3.642,3.642,0,0,0,.672,3.512c.6.786,1.391,1.991.92,2.935-1.711,3.429,1.1,6.011,1.493,9.028.127.982,2.916,1.189,3.529-.05.927-1.876,3.9-2.119,3.6-4.8-.015-.135.259-.374.444-.449,2.707-1.1,3.088-3.624,3.693-6.014.552-2.182,2.331-3.488,3.708-5.068.976-1.121,2.2-2.054,2.361-3.669-5.715-.681-6.632-5.248-7.934-9.561,1.072-.94,1.891-.348,2.543.525A12.749,12.749,0,0,1,75.436,45c.376,1.645,1.1,1.931,2.593,1.4,1.323-.47,2.724-.654,3.709-1.854.479-.584.877-1.087.669-1.867-.227-.852-.964-.793-1.615-.93-2-.422-2.782-1.472-2.772-3.946,2.395,1.3,4.5,3.185,7.389,2.8,1,1.541,2.538,2.759,2.98,4.624.341,1.436.482,2.921.727,4.485,1.418-1.044,1.325-2.64,1.566-4.035a3.363,3.363,0,0,1,1.193-2.534" transform="translate(-23.978 -8.01)" fill="none" stroke="#05ac8d" stroke-linecap="round" stroke-linejoin="round" stroke-width="1.6"></path><path id="Path_71585" data-name="Path 71585" d="M11.5,86.569a6.214,6.214,0,0,1,3.182,3.261c.989,1.833,2.032,3.345,4.2,3.939a3.387,3.387,0,0,1,2.492,3.2c.068,2.3,1.292,4.63-.127,6.954-.309.5-.045,1.358-.045,2.051" transform="translate(-6.188 -46.583)" fill="none" stroke="#05ac8d" stroke-linecap="round" stroke-linejoin="round" stroke-width="1.6"></path><path id="Path_71586" data-name="Path 71586" d="M26.428,27.069c-.7,4.238-3.691,6.719-6.928,9.007" transform="translate(-10.493 -14.566)" fill="none" stroke="#05ac8d" stroke-linecap="round" stroke-linejoin="round" stroke-width="1.6"></path><path id="Path_71587" data-name="Path 71587" d="M107.964,115.069c-.493,2.145-2.294,3.4-3.464,5.081" transform="translate(-56.232 -61.919)" fill="none" stroke="#05ac8d" stroke-linecap="round" stroke-linejoin="round" stroke-width="1.6"></path><path id="Path_71589" data-name="Path 71589" d="M38,21.569a6.37,6.37,0,0,0-3,2.079" transform="translate(-18.834 -11.606)" fill="none" stroke="#05ac8d" stroke-linecap="round" stroke-linejoin="round" stroke-width="1.6"></path></g></g></svg>