<svg xmlns="http://www.w3.org/2000/svg" width="69.42" height="60.116" viewBox="0 0 69.42 60.116"><g id="Group_460" data-name="Group 460" transform="translate(0.1 0.1)"><g id="Group_461" data-name="Group 461" transform="translate(0.7 0.7)"><path id="Path_71590" data-name="Path 71590" d="M50.214,33.782,60.369,23.294s2.993-2.117,5.626,0a4.371,4.371,0,0,1,.953,5.387c-1.288,2.67-13.254,15.782-13.254,15.782A13.179,13.179,0,0,1,44.3,48.038c-6.054-.047-17.593,0-17.593,0a8.715,8.715,0,0,0-5.953,3.583L7.453,38.79l.186-.526s6.58-12.587,22.289-7.628l16.234.047a4.625,4.625,0,0,1,4.053,4.673A4.176,4.176,0,0,1,46.59,39.6H30.547" transform="translate(0.333 2.612)" fill="none" stroke="#05ac8d" stroke-width="1.6"></path><path id="Path_71591" data-name="Path 71591" d="M23.3,51.076h0a9.235,9.235,0,0,1-13.058.235L.7,42.106l6.41-6.647Z" transform="translate(-0.7 4.617)" fill="none" stroke="#05ac8d" stroke-linejoin="round" stroke-width="1.6"></path><rect id="Rectangle_13600" data-name="Rectangle 13600" width="5.872" height="15.032" transform="translate(21.145 10.167)" fill="none" stroke="#05ac8d" stroke-width="1.6"></rect><rect id="Rectangle_13601" data-name="Rectangle 13601" width="5.872" height="20.083" transform="translate(30.918 5.116)" fill="none" stroke="#05ac8d" stroke-width="1.6"></rect><rect id="Rectangle_13602" data-name="Rectangle 13602" width="5.872" height="25.199" transform="translate(40.37)" fill="none" stroke="#05ac8d" stroke-width="1.6"></rect></g></g></svg>