<svg xmlns="http://www.w3.org/2000/svg" xmlns:xlink="http://www.w3.org/1999/xlink" width="239" height="75.275" viewBox="0 0 239 75.275"><defs><clipPath id="clip-path"><rect id="Rectangle_13543" data-name="Rectangle 13543" width="14.346" height="10.7" fill="#fff"></rect></clipPath><clipPath id="clip-path-2"><rect id="Rectangle_13544" data-name="Rectangle 13544" width="1.614" height="4.782" fill="#fff"></rect></clipPath><clipPath id="clip-path-3"><rect id="Rectangle_13545" data-name="Rectangle 13545" width="4.603" height="4.005" fill="#fff"></rect></clipPath><clipPath id="clip-path-4"><rect id="Rectangle_13546" data-name="Rectangle 13546" width="4.005" height="2.75" fill="#fff"></rect></clipPath><clipPath id="clip-path-5"><rect id="Rectangle_13547" data-name="Rectangle 13547" width="2.391" height="8.13" fill="#fff"></rect></clipPath><clipPath id="clip-path-6"><rect id="Rectangle_13548" data-name="Rectangle 13548" width="1.614" height="3.347" fill="#fff"></rect></clipPath><clipPath id="clip-path-7"><rect id="Rectangle_13549" data-name="Rectangle 13549" width="3.527" height="2.391" fill="#fff"></rect></clipPath><clipPath id="clip-path-8"><rect id="Rectangle_13550" data-name="Rectangle 13550" width="2.69" height="1.913" fill="#fff"></rect></clipPath><clipPath id="clip-path-9"><rect id="Rectangle_13551" data-name="Rectangle 13551" width="2.391" height="6.217" fill="#fff"></rect></clipPath><clipPath id="clip-path-10"><rect id="Rectangle_13552" data-name="Rectangle 13552" width="1.016" height="1.016" fill="#fff"></rect></clipPath><clipPath id="clip-path-11"><path id="Path_71451" data-name="Path 71451" d="M182.138,288.4a.538.538,0,1,0,.538.538.536.536,0,0,0-.538-.538" transform="translate(-181.6 -288.4)" fill="#fff"></path></clipPath><clipPath id="clip-path-13"><path id="Path_71453" data-name="Path 71453" d="M185.438,286.6a.538.538,0,1,0,.538.538.631.631,0,0,0-.538-.538" transform="translate(-184.9 -286.6)" fill="#fff"></path></clipPath><clipPath id="clip-path-14"><rect id="Rectangle_13556" data-name="Rectangle 13556" width="7.173" height="7.173" fill="#fff"></rect></clipPath><clipPath id="clip-path-15"><rect id="Rectangle_13555" data-name="Rectangle 13555" width="7.173" height="6.575" transform="matrix(0.974, -0.227, 0.227, 0.974, 0, 1.625)" fill="#fff"></rect></clipPath><clipPath id="clip-path-17"><rect id="Rectangle_13559" data-name="Rectangle 13559" width="8.787" height="4.782" fill="#fff"></rect></clipPath><clipPath id="clip-path-18"><rect id="Rectangle_13558" data-name="Rectangle 13558" width="7.173" height="6.575" transform="translate(0 1.628) rotate(-13.12)" fill="#fff"></rect></clipPath><clipPath id="clip-path-20"><rect id="Rectangle_13560" data-name="Rectangle 13560" width="3.945" height="4.005" fill="#fff"></rect></clipPath><clipPath id="clip-path-21"><rect id="Rectangle_13561" data-name="Rectangle 13561" width="5.559" height="4.543" fill="#fff"></rect></clipPath><clipPath id="clip-path-22"><rect id="Rectangle_13562" data-name="Rectangle 13562" width="3.826" height="4.005" fill="#fff"></rect></clipPath></defs><g id="Group_49434" data-name="Group 49434" transform="translate(-47 -31.135)"><g id="Group_274" data-name="Group 274" transform="translate(47 31.135)"><g id="SHOONYA_logo" data-name="SHOONYA logo" transform="translate(0)"><g id="Group_127" data-name="Group 127" transform="translate(116.623 4.627)"><g id="Group_126" data-name="Group 126" clip-path="url(#clip-path)"><path id="Path_71415" data-name="Path 71415" d="M263.813,221.171l-.179-2.271h-1.016l-.179,3.168-1.674,1.136v-3.168h-.06l-4.722,3.168v-3.168h-.06L251.2,223.2v2.212h.3a22.155,22.155,0,0,1,5.918,1.2c.956.3,1.973.658,2.929,1.016a29.638,29.638,0,0,1,2.809,1.315l.06.06h2.152l.12-8.966Z" transform="translate(-251.2 -218.362)" fill="#fff"></path></g></g><path id="Path_71416" data-name="Path 71416" d="M231.832,238.894a10.918,10.918,0,0,0-11.537,1.375c-8.249,6.1-12.792,16.02-21.34,21.818A14.426,14.426,0,0,1,187.6,264.6c-.06.3-.179.6-.239.9v.06c0,.06.06.12,0,.179,0,.06,0,.06-.06.12,0,.179-.06.359-.06.538a1.745,1.745,0,0,0-.12.538c0,.06-.06.119-.12.179a19.8,19.8,0,0,0,11.656-2.032c7.592-4.244,12.194-11.9,17.933-18.232a24.355,24.355,0,0,1,5.559-4.961c6.217-4.483,15.243,1.255,13.27,8.907a8.363,8.363,0,0,1-11.9,5.8c-1.136-.418-2.69-2.391-3.766-.956a1.081,1.081,0,0,0,.239,1.554c2.75,2.032,5.739,3.168,9.206,2.451C239.3,258.082,241.157,242.72,231.832,238.894Z" transform="translate(-108.753 -221.355)" fill="#fff"></path><path id="Path_71417" data-name="Path 71417" d="M194.738,236.92c-1.2-3.706-2.331-7.412-3.527-11.059-.658-1.793-2.331-.717-2.929.538-.3.538-.658.6-1.255.359a16.567,16.567,0,0,0-10.461-1.076c-16.917,4.065-17.514,21.519-9.385,30.665a.311.311,0,0,1,.12-.239h0c.06-.06.179-.12.239-.179h0a1.874,1.874,0,0,1,.658-.478l.538-.359.179-.179c0-.06.06-.06.12-.06a15.2,15.2,0,0,1-4.483-14.406,15.776,15.776,0,0,1,22.177-11.178,2.259,2.259,0,0,0,2.75-.418h.179c.777,2.451,1.554,4.961,2.391,7.472-2.809-.06-5.44.12-8.13-.06,5.021-5.5-16.259-6.217-14.526,9.146A10.513,10.513,0,0,0,174,252.7a2.6,2.6,0,0,1,.359-.418,2.275,2.275,0,0,1,.538-.777,3.337,3.337,0,0,1,.3-.478c.06-.06.12-.179.179-.239a8.308,8.308,0,0,1-3.467-4.663c-1.853-5.858,3.587-12.194,9.684-10.879-1.076,1.435-2.57,2.869,0,3.467,3.945.06,7.831.06,11.776,0C194.618,238.713,195.1,238,194.738,236.92Z" transform="translate(-98.738 -216.153)" fill="#fff"></path><path id="Path_71418" data-name="Path 71418" d="M245.282,278.717a7.011,7.011,0,0,1-.538-1.435,18.822,18.822,0,0,1-16.5-7.293,1.193,1.193,0,1,0-1.674,1.674,66.008,66.008,0,0,0,5.44,4.662,16.93,16.93,0,0,0,13.928,3.288A4.947,4.947,0,0,1,245.282,278.717Z" transform="translate(-124.475 -234.099)" fill="#fff"></path><path id="Path_71419" data-name="Path 71419" d="M245.083,246.133a16.606,16.606,0,0,1-3.288,7.95.059.059,0,0,0,.06.06c.06,0,.12,0,.12.06a8.168,8.168,0,0,1,1.375,1.494,17.1,17.1,0,0,0,3.945-15.422c-3.826-18.112-25.584-18.232-34.79-5.739-5.141,5.38-9.086,11.955-15.123,16.379a8.02,8.02,0,0,1-4.782,1.674v.179a1.969,1.969,0,0,1,0,.837,11.517,11.517,0,0,1,.06,1.435,9.075,9.075,0,0,0,3.527-.717,16.474,16.474,0,0,0,5.978-4.3c5.858-6.1,10.461-13.39,17.335-18.531C230.319,222.761,247.355,231.906,245.083,246.133Z" transform="translate(-111.006 -216.519)" fill="#fff"></path><g id="Group_131" data-name="Group 131" transform="translate(71.253 35.651)"><g id="Group_130" data-name="Group 130"><g id="Group_129" data-name="Group 129"><g id="Group_128" data-name="Group 128" clip-path="url(#clip-path-2)"><path id="Path_71420" data-name="Path 71420" d="M175.977,274.563a.22.22,0,0,1,.179.06v-4.6h0c0-.06-.06-.06-.12-.12a.209.209,0,0,0-.12.06l-.717,3.826s.239.418.418.777c.12.06.239,0,.359,0" transform="translate(-175.26 -269.9)" fill="#fff"></path></g></g></g></g><g id="Group_135" data-name="Group 135" transform="translate(67.427 40.493)"><g id="Group_134" data-name="Group 134"><g id="Group_133" data-name="Group 133"><g id="Group_132" data-name="Group 132" clip-path="url(#clip-path-3)"><path id="Path_71421" data-name="Path 71421" d="M172.975,279.339a.311.311,0,0,1-.12-.239l-3.885,2.331h0c-.06,0-.06.06,0,.12,0,.06.06.06.12.06l3.527-1.435s.3-.418.478-.717l-.12-.12" transform="translate(-168.91 -278.443)" fill="#fff"></path></g></g></g></g><g id="Group_139" data-name="Group 139" transform="translate(72.389 40.971)"><g id="Group_138" data-name="Group 138"><g id="Group_137" data-name="Group 137"><g id="Group_136" data-name="Group 136" clip-path="url(#clip-path-4)"><path id="Path_71422" data-name="Path 71422" d="M181.145,281.37l-2.989-2.511a5.547,5.547,0,0,1-.777-.06.543.543,0,0,1-.179.418l3.885,2.271h0c.06,0,.12,0,.06-.119.06.06.06,0,0,0" transform="translate(-177.2 -278.8)" fill="#fff"></path></g></g></g></g><g id="Group_143" data-name="Group 143" transform="translate(70.416 41.27)"><g id="Group_142" data-name="Group 142"><g id="Group_141" data-name="Group 141"><g id="Group_140" data-name="Group 140" clip-path="url(#clip-path-5)"><path id="Path_71423" data-name="Path 71423" d="M176.276,279.7a.849.849,0,0,1-.359.12.22.22,0,0,1-.179-.06l-.12.239-.418,7.472a2.586,2.586,0,0,0,1.554,0l-.478-7.771" transform="translate(-174.423 -279.461)" fill="#fff"></path></g></g></g></g><g id="Group_146" data-name="Group 146" transform="translate(0 7.506)"><g id="Group_145" data-name="Group 145"><g id="Group_144" data-name="Group 144"><path id="Path_71424" data-name="Path 71424" d="M39.82,28.293a3.462,3.462,0,0,1-.717.837,1.71,1.71,0,0,1-1.016.3,2.277,2.277,0,0,1-1.136-.359c-.418-.239-.9-.478-1.375-.777a12.442,12.442,0,0,0-1.793-.777,6.709,6.709,0,0,0-2.271-.359,4.7,4.7,0,0,0-3.288.956,3.3,3.3,0,0,0-1.076,2.57,2.6,2.6,0,0,0,.658,1.734,5.542,5.542,0,0,0,1.734,1.2c.717.3,1.494.6,2.451.9.9.239,1.853.6,2.809.9a23.316,23.316,0,0,1,2.809,1.2,10.11,10.11,0,0,1,2.451,1.734,8.832,8.832,0,0,1,1.734,2.57,9.463,9.463,0,0,1,.658,3.646,12.126,12.126,0,0,1-.837,4.423,9.7,9.7,0,0,1-2.391,3.587A11.257,11.257,0,0,1,35.4,54.953a13.937,13.937,0,0,1-5.2.9,14.839,14.839,0,0,1-3.228-.359,27.543,27.543,0,0,1-3.168-.9,16.079,16.079,0,0,1-2.869-1.435A10.274,10.274,0,0,1,18.6,51.306L20.931,47.6a2.548,2.548,0,0,1,.717-.658,2.015,2.015,0,0,1,1.016-.3,2.3,2.3,0,0,1,1.435.478c.478.3,1.016.6,1.614.956a12.891,12.891,0,0,0,2.032.956,7.6,7.6,0,0,0,2.75.418,5.078,5.078,0,0,0,3.347-.956,3.657,3.657,0,0,0,1.2-2.989,2.852,2.852,0,0,0-.658-1.913,5.642,5.642,0,0,0-1.734-1.255,18.264,18.264,0,0,0-2.391-.9c-.9-.239-1.853-.538-2.75-.837a15.681,15.681,0,0,1-2.75-1.136,8.34,8.34,0,0,1-4.125-4.423,11,11,0,0,1-.658-4,8.971,8.971,0,0,1,.777-3.706,9.328,9.328,0,0,1,2.271-3.228,10.775,10.775,0,0,1,3.646-2.271A12.9,12.9,0,0,1,31.631,21a17.023,17.023,0,0,1,3.049.239,19.291,19.291,0,0,1,2.809.717A16.024,16.024,0,0,1,40,23.092a13.243,13.243,0,0,1,2.092,1.494Z" transform="translate(-18.6 -21)" fill="#fff"></path></g></g></g><g id="Group_149" data-name="Group 149" transform="translate(28.257 7.865)"><g id="Group_148" data-name="Group 148" transform="translate(0 0)"><g id="Group_147" data-name="Group 147"><path id="Path_71425" data-name="Path 71425" d="M63.109,21.6V55.613h-7.95V41.266H41.35V55.672H33.4V21.6h7.95V35.827H55.158V21.6Z" transform="translate(-33.4 -21.6)" fill="#fff"></path></g></g></g><path id="Path_71441" data-name="Path 71441" d="M262.575,213.058a.544.544,0,0,1-.239.478.658.658,0,1,1,0-.956A.485.485,0,0,1,262.575,213.058Z" transform="translate(-138.599 -211.12)" fill="#fff"></path><path id="Path_71442" data-name="Path 71442" d="M259.917,213.859a.311.311,0,0,1-.12.239.453.453,0,0,1-.239.12.31.31,0,0,1-.239-.12.453.453,0,0,1-.12-.239.31.31,0,0,1,.12-.239.453.453,0,0,1,.239-.12.311.311,0,0,1,.239.12C259.917,213.679,259.917,213.739,259.917,213.859Z" transform="translate(-137.795 -211.562)" fill="#fff"></path><path id="Path_71443" data-name="Path 71443" d="M266.14,211c-.06.06-.06.12-.12.179a1.445,1.445,0,0,0-1.674.538,1.417,1.417,0,0,0,.359,1.913,1.3,1.3,0,0,0,1.793-.239h0a1.266,1.266,0,0,0,.418.179,1.026,1.026,0,0,0,.478.956,1.147,1.147,0,0,0,1.554-.3,1.075,1.075,0,0,0-.06-1.315v-.06A1.658,1.658,0,1,0,266.14,211Z" transform="translate(-139.773 -210.259)" fill="#fff"></path><path id="Path_71444" data-name="Path 71444" d="M176.442,278.785a.425.425,0,1,1-.538-.658.4.4,0,0,1,.6.06.453.453,0,0,1-.06.6" transform="translate(-104.232 -237.514)" fill="#fff"></path><path id="Path_71445" data-name="Path 71445" d="M186.412,273.218c-.12.12-.3.12-.359-.06-.12-.12-.06-.3,0-.418.12-.12.3-.12.359,0a.361.361,0,0,1,0,.478" transform="translate(-108.345 -235.355)" fill="#fff"></path><g id="Group_198" data-name="Group 198" transform="translate(76.812 33.918)"><g id="Group_197" data-name="Group 197"><g id="Group_196" data-name="Group 196"><g id="Group_195" data-name="Group 195" clip-path="url(#clip-path-6)"><path id="Path_71446" data-name="Path 71446" d="M186.078,270.328h.12V267.16h0c0-.06,0-.06-.06-.06s-.06,0-.06.06l-.478,2.69a2.711,2.711,0,0,0,.3.538.22.22,0,0,1,.179-.06" transform="translate(-185.002 -267.04)" fill="#fff"></path></g></g></g></g><g id="Group_202" data-name="Group 202" transform="translate(74.899 37.265)"><g id="Group_201" data-name="Group 201"><g id="Group_200" data-name="Group 200"><g id="Group_199" data-name="Group 199" clip-path="url(#clip-path-7)"><path id="Path_71447" data-name="Path 71447" d="M184.112,273.579a.22.22,0,0,1-.06-.179l-2.57,1.614h0s-.06.06,0,.06a.059.059,0,0,0,.06.06l2.391-1.016a3,3,0,0,1,.359-.478.262.262,0,0,1-.179-.06" transform="translate(-181.422 -272.922)" fill="#fff"></path></g></g></g></g><g id="Group_206" data-name="Group 206" transform="translate(78.187 37.624)"><g id="Group_205" data-name="Group 205"><g id="Group_204" data-name="Group 204"><g id="Group_203" data-name="Group 203" clip-path="url(#clip-path-8)"><path id="Path_71448" data-name="Path 71448" d="M189.49,274.993l-2.032-1.734a2.628,2.628,0,0,1-.538-.06.456.456,0,0,1-.12.3l2.57,1.554h.06c.12,0,.12-.06.06-.06" transform="translate(-186.86 -273.2)" fill="#fff"></path></g></g></g></g><g id="Group_210" data-name="Group 210" transform="translate(76.872 37.385)"><g id="Group_209" data-name="Group 209"><g id="Group_208" data-name="Group 208"><g id="Group_207" data-name="Group 207" clip-path="url(#clip-path-9)"><path id="Path_71449" data-name="Path 71449" d="M186.377,274c-.06.06-.12.06-.239.06h-.12l-.12.179-.3,5.2a1.27,1.27,0,0,0,1.076,0l-.3-5.44" transform="translate(-185.062 -273.283)" fill="#fff"></path></g></g></g></g><g id="Group_218" data-name="Group 218" transform="translate(75.079 46.71)"><g id="Group_217" data-name="Group 217"><g id="Group_216" data-name="Group 216"><g id="Group_215" data-name="Group 215" clip-path="url(#clip-path-10)"><g id="Group_214" data-name="Group 214" transform="translate(-0.06)"><g id="Group_213" data-name="Group 213"><g id="Group_212" data-name="Group 212"><g id="Group_211" data-name="Group 211" clip-path="url(#clip-path-11)"><path id="Path_71450" data-name="Path 71450" d="M181.7,288.4h1.016v1.016H181.7Z" transform="translate(-181.64 -288.4)" fill="#fff"></path></g></g></g></g></g></g></g></g><g id="Group_226" data-name="Group 226" transform="translate(76.992 45.634)"><g id="Group_225" data-name="Group 225"><g id="Group_224" data-name="Group 224"><g id="Group_223" data-name="Group 223" clip-path="url(#clip-path-10)"><g id="Group_222" data-name="Group 222" transform="translate(0)"><g id="Group_221" data-name="Group 221"><g id="Group_220" data-name="Group 220"><g id="Group_219" data-name="Group 219" clip-path="url(#clip-path-13)"><path id="Path_71452" data-name="Path 71452" d="M184.9,286.6h1.016v1.016H184.9Z" transform="translate(-184.9 -286.6)" fill="#fff"></path></g></g></g></g></g></g></g></g><g id="Group_237" data-name="Group 237" transform="translate(72.807 3.013)"><g id="Group_236" data-name="Group 236"><g id="Group_235" data-name="Group 235" clip-path="url(#clip-path-14)"><g id="Group_234" data-name="Group 234" transform="translate(-0.531 -0.548)"><g id="Group_233" data-name="Group 233" transform="translate(0 0)"><g id="Group_232" data-name="Group 232"><g id="Group_231" data-name="Group 231" transform="translate(0)" clip-path="url(#clip-path-15)"><g id="Group_230" data-name="Group 230"><g id="Group_229" data-name="Group 229"><g id="Group_228" data-name="Group 228"><g id="Group_227" data-name="Group 227" clip-path="url(#clip-path-15)"><path id="Path_71454" data-name="Path 71454" d="M183.355,216.566c-3.288.777-4.722,2.63-4.125,5.8,0,.06-.06.06-.06,0a6.684,6.684,0,0,1-.478-2.75c.239-2.809,3.527-3.945,6.037-3.646a.162.162,0,0,1,.12.239c-1.494,1.853-.359,5.679-5.2,5.021a4.871,4.871,0,0,1,3.706-4.663" transform="translate(-177.683 -215.003)" fill="#fff" fill-rule="evenodd"></path></g></g></g></g></g></g></g></g></g></g></g><g id="Group_248" data-name="Group 248" transform="translate(65.634 6.182)"><g id="Group_247" data-name="Group 247"><g id="Group_246" data-name="Group 246" clip-path="url(#clip-path-17)"><g id="Group_245" data-name="Group 245" transform="translate(0.126 -1.145)"><g id="Group_244" data-name="Group 244" transform="translate(0 0)"><g id="Group_243" data-name="Group 243"><g id="Group_242" data-name="Group 242" clip-path="url(#clip-path-18)"><g id="Group_241" data-name="Group 241" transform="translate(-0.24 -0.003)"><g id="Group_240" data-name="Group 240" transform="translate(0 0)"><g id="Group_239" data-name="Group 239" transform="translate(0)"><g id="Group_238" data-name="Group 238" clip-path="url(#clip-path-18)"><path id="Path_71455" data-name="Path 71455" d="M167.634,222.176c3.288-.777,5.38.3,6.276,3.347,0,.06.06,0,.06,0a6.178,6.178,0,0,0-.777-2.69c-1.494-2.451-4.9-1.973-7.054-.6a.169.169,0,0,0,0,.3c2.152,1.016,2.809,4.961,6.934,2.212a4.863,4.863,0,0,0-5.44-2.57" transform="translate(-165.846 -219.653)" fill="#fff" fill-rule="evenodd"></path></g></g></g></g></g></g></g></g></g></g></g><g id="Group_252" data-name="Group 252" transform="translate(127.801 40.493)"><g id="Group_251" data-name="Group 251"><g id="Group_250" data-name="Group 250"><g id="Group_249" data-name="Group 249" clip-path="url(#clip-path-20)"><path id="Path_71456" data-name="Path 71456" d="M271.1,279.755l2.092-1.255.956,1.853c.239,1.016-1.016,1.375-1.973,1.315Z" transform="translate(-270.383 -278.201)" fill="#fff" fill-rule="evenodd"></path></g></g></g></g><g id="Group_256" data-name="Group 256" transform="translate(126.247 42.884)"><g id="Group_255" data-name="Group 255"><g id="Group_254" data-name="Group 254"><g id="Group_253" data-name="Group 253" clip-path="url(#clip-path-21)"><path id="Path_71457" data-name="Path 71457" d="M269.576,282.8l-1.076,1.973,1.076,2.032v-.837h1.016a1.11,1.11,0,0,0,1.016-.6l1.255-2.451a2.127,2.127,0,0,1-1.614.538h-1.674Z" transform="translate(-267.783 -282.322)" fill="#fff" fill-rule="evenodd"></path></g></g></g></g><path id="Path_71458" data-name="Path 71458" d="M264.792,276.52l-2.092-1.255,1.136-1.733c.717-.717,1.674.239,2.092,1.136Z" transform="translate(-139.203 -235.608)" fill="#fff" fill-rule="evenodd"></path><path id="Path_71459" data-name="Path 71459" d="M267.535,276.168h2.212l1.2-1.973-.717.359-.478-.9a1.122,1.122,0,0,0-.956-.658H266.1a2.224,2.224,0,0,1,1.255,1.2l.837,1.494Z" transform="translate(-140.57 -235.496)" fill="#fff" fill-rule="evenodd"></path><g id="Group_260" data-name="Group 260" transform="translate(121.584 40.493)"><g id="Group_259" data-name="Group 259"><g id="Group_258" data-name="Group 258"><g id="Group_257" data-name="Group 257" clip-path="url(#clip-path-22)"><path id="Path_71460" data-name="Path 71460" d="M260.081,278.5l.658.538-.6,1.2c-.3.538.239,1.076.538,1.255a3.057,3.057,0,0,0,1.315.179l.837-1.435.658.359-1.136-2.092Z" transform="translate(-259.723 -278.201)" fill="#fff" fill-rule="evenodd"></path></g></g></g></g><g id="Group_264" data-name="Group 264" transform="translate(121.584 42.884)"><g id="Group_263" data-name="Group 263"><g id="Group_262" data-name="Group 262"><g id="Group_261" data-name="Group 261" clip-path="url(#clip-path-3)"><path id="Path_71461" data-name="Path 71461" d="M260.2,283.1l1.375,2.63a1.5,1.5,0,0,0,1.375.418h1.494V283.7h-2.81a1.894,1.894,0,0,1-1.435-.6Z" transform="translate(-259.782 -282.443)" fill="#fff" fill-rule="evenodd"></path></g></g></g></g><g id="Group_267" data-name="Group 267" transform="translate(140.846 8.044)"><g id="Group_266" data-name="Group 266" transform="translate(0 0)"><g id="Group_265" data-name="Group 265"><path id="Path_71462" data-name="Path 71462" d="M110.209,21.7V55.713h-4.125a4,4,0,0,1-1.554-.3,3.115,3.115,0,0,1-1.2-1.016L87.255,34.074c.06.6.12,1.2.12,1.793,0,.538.06,1.076.06,1.614V55.713H80.5V21.7h4.184a3.958,3.958,0,0,1,.9.06c.239.06.418.12.6.179a1.412,1.412,0,0,1,.538.359,5.572,5.572,0,0,1,.6.6l16.2,20.443c-.06-.658-.12-1.315-.179-1.913s-.06-1.2-.06-1.734V21.7Z" transform="translate(-80.5 -21.7)" fill="#fff"></path></g></g></g><g id="Group_270" data-name="Group 270" transform="translate(173.207 7.925)"><g id="Group_269" data-name="Group 269" transform="translate(0 0)"><g id="Group_268" data-name="Group 268"><path id="Path_71463" data-name="Path 71463" d="M109.364,42.72V55.632h-7.89V42.72L89.1,21.62h6.934a2.474,2.474,0,0,1,1.614.478,4,4,0,0,1,1.016,1.2l4.842,9.923q.628,1.166,1.076,2.152c.359.658.6,1.315.9,1.973.239-.658.478-1.315.777-2.032q.448-.986,1.076-2.152l4.782-9.923c.12-.179.239-.418.359-.6a4.566,4.566,0,0,1,.538-.538,4.459,4.459,0,0,1,.717-.418,2.4,2.4,0,0,1,.9-.179h7.054Z" transform="translate(-89.1 -21.5)" fill="#fff"></path></g></g></g><g id="Group_273" data-name="Group 273" transform="translate(204.569 8.044)"><g id="Group_272" data-name="Group 272"><g id="Group_271" data-name="Group 271"><path id="Path_71464" data-name="Path 71464" d="M124.178,42.741l-3.168-9.325a20.916,20.916,0,0,1-.717-2.092c-.239-.777-.538-1.674-.777-2.63a23.162,23.162,0,0,1-.777,2.63,20.918,20.918,0,0,1-.717,2.092l-3.108,9.265,9.265.06Zm12.553,12.971h-6.157a2.632,2.632,0,0,1-2.63-1.734l-2.032-5.918H113l-2.032,5.918a2.924,2.924,0,0,1-.956,1.2,2.557,2.557,0,0,1-1.674.538H102.3L115.451,21.7h8.07Z" transform="translate(-102.3 -21.7)" fill="#fff"></path></g></g></g><path id="Path_71465" data-name="Path 71465" d="M235.435,260.4a1.2,1.2,0,0,1,.06,2.391A1.2,1.2,0,0,1,235.435,260.4Z" transform="translate(-127.779 -230.428)" fill="#fff"></path></g></g><path id="Path_71921" data-name="Path 71921" d="M-63.81-14.36V0h-1.08a.859.859,0,0,1-.415-.09,1.23,1.23,0,0,1-.335-.29l-8.11-10.49q.02.27.035.53t.015.49V0h-1.87V-14.36h1.1a1.042,1.042,0,0,1,.42.065.916.916,0,0,1,.31.3l8.13,10.5q-.03-.29-.045-.565t-.015-.515v-9.78Zm9.57,8.15a3.334,3.334,0,0,0-.165-1.07,2.43,2.43,0,0,0-.485-.85,2.2,2.2,0,0,0-.78-.56,2.637,2.637,0,0,0-1.06-.2,2.6,2.6,0,0,0-1.935.71,3.435,3.435,0,0,0-.9,1.97Zm1.61,4.76a3.84,3.84,0,0,1-.83.725,4.817,4.817,0,0,1-1,.495,6.064,6.064,0,0,1-1.1.28A7.08,7.08,0,0,1-56.67.14a5.228,5.228,0,0,1-1.945-.355,4.323,4.323,0,0,1-1.55-1.04,4.743,4.743,0,0,1-1.02-1.7A6.882,6.882,0,0,1-61.55-5.29a5.779,5.779,0,0,1,.33-1.975,4.753,4.753,0,0,1,.945-1.595A4.357,4.357,0,0,1-58.77-9.93a4.933,4.933,0,0,1,2-.39,4.7,4.7,0,0,1,1.715.3A3.809,3.809,0,0,1-53.7-9.13a4.1,4.1,0,0,1,.9,1.43,5.4,5.4,0,0,1,.325,1.94,1.237,1.237,0,0,1-.1.6A.407.407,0,0,1-52.95-5h-6.66a5.488,5.488,0,0,0,.26,1.585,3.2,3.2,0,0,0,.635,1.125,2.523,2.523,0,0,0,.965.67,3.393,3.393,0,0,0,1.25.22,3.753,3.753,0,0,0,1.125-.15,5.455,5.455,0,0,0,.82-.325q.345-.175.58-.325a.8.8,0,0,1,.415-.15.429.429,0,0,1,.37.18ZM-47.28.16a2.509,2.509,0,0,1-1.9-.69A2.725,2.725,0,0,1-49.84-2.5V-8.58h-1.18a.407.407,0,0,1-.285-.1A.406.406,0,0,1-51.42-9v-.79l1.65-.23.44-3.03a.471.471,0,0,1,.155-.265.448.448,0,0,1,.3-.095h.99V-10h2.88v1.42h-2.88v5.95a1.217,1.217,0,0,0,.3.9,1.022,1.022,0,0,0,.755.3,1.379,1.379,0,0,0,.465-.07,1.854,1.854,0,0,0,.335-.155q.14-.085.24-.155a.325.325,0,0,1,.18-.07.239.239,0,0,1,.155.045.561.561,0,0,1,.115.145l.58.94a3.369,3.369,0,0,1-1.14.68A3.978,3.978,0,0,1-47.28.16ZM-28.1-13.57a1.226,1.226,0,0,1-.22.69L-36.25-1.73h8.01V0h-10.8V-.84a.922.922,0,0,1,.055-.32,1.473,1.473,0,0,1,.145-.29l7.95-11.18h-7.75v-1.73H-28.1Zm8.25,7.36a3.334,3.334,0,0,0-.165-1.07,2.43,2.43,0,0,0-.485-.85,2.2,2.2,0,0,0-.78-.56,2.637,2.637,0,0,0-1.06-.2,2.6,2.6,0,0,0-1.935.71,3.435,3.435,0,0,0-.895,1.97Zm1.61,4.76a3.84,3.84,0,0,1-.83.725,4.817,4.817,0,0,1-1,.495,6.064,6.064,0,0,1-1.1.28A7.08,7.08,0,0,1-22.28.14a5.228,5.228,0,0,1-1.945-.355,4.323,4.323,0,0,1-1.55-1.04,4.743,4.743,0,0,1-1.02-1.7A6.882,6.882,0,0,1-27.16-5.29a5.779,5.779,0,0,1,.33-1.975,4.753,4.753,0,0,1,.945-1.595,4.357,4.357,0,0,1,1.5-1.07,4.933,4.933,0,0,1,2-.39,4.7,4.7,0,0,1,1.715.3,3.809,3.809,0,0,1,1.355.885,4.1,4.1,0,0,1,.9,1.43,5.4,5.4,0,0,1,.325,1.94,1.237,1.237,0,0,1-.1.6A.407.407,0,0,1-18.56-5h-6.66a5.488,5.488,0,0,0,.26,1.585,3.2,3.2,0,0,0,.635,1.125,2.523,2.523,0,0,0,.965.67,3.393,3.393,0,0,0,1.25.22,3.753,3.753,0,0,0,1.125-.15,5.455,5.455,0,0,0,.82-.325q.345-.175.58-.325a.8.8,0,0,1,.415-.15.429.429,0,0,1,.37.18Zm4.09-6.76a4.649,4.649,0,0,1,1.18-1.57,2.522,2.522,0,0,1,1.66-.57,2.528,2.528,0,0,1,.625.075,1.61,1.61,0,0,1,.515.225l-.13,1.47a.317.317,0,0,1-.33.27,2.4,2.4,0,0,1-.42-.055,3.112,3.112,0,0,0-.6-.055,2.356,2.356,0,0,0-.83.135,1.939,1.939,0,0,0-.645.4,2.724,2.724,0,0,0-.505.65,6.507,6.507,0,0,0-.41.875V0h-1.95V-10.16h1.12a.619.619,0,0,1,.435.115.755.755,0,0,1,.165.405Zm9.44-2.11a5.371,5.371,0,0,1,2.025.365A4.222,4.222,0,0,1-1.145-8.9,4.68,4.68,0,0,1-.17-7.255,6.485,6.485,0,0,1,.17-5.09,6.53,6.53,0,0,1-.17-2.92a4.621,4.621,0,0,1-.975,1.65A4.252,4.252,0,0,1-2.685-.225,5.371,5.371,0,0,1-4.71.14,5.4,5.4,0,0,1-6.745-.225,4.3,4.3,0,0,1-8.29-1.27a4.641,4.641,0,0,1-.985-1.65A6.443,6.443,0,0,1-9.62-5.09a6.4,6.4,0,0,1,.345-2.165A4.7,4.7,0,0,1-8.29-8.9a4.27,4.27,0,0,1,1.545-1.05A5.4,5.4,0,0,1-4.71-10.32Zm0,8.94a2.49,2.49,0,0,0,2.15-.97,4.555,4.555,0,0,0,.71-2.73,4.579,4.579,0,0,0-.71-2.735A2.485,2.485,0,0,0-4.71-8.79a2.52,2.52,0,0,0-2.175.975A4.555,4.555,0,0,0-7.6-5.08a4.531,4.531,0,0,0,.715,2.73A2.525,2.525,0,0,0-4.71-1.38Zm22.53-1.7a.409.409,0,0,1,.31.14l.84.92A6,6,0,0,1,16.825-.41,7.377,7.377,0,0,1,13.78.16a7.127,7.127,0,0,1-2.825-.54,6.223,6.223,0,0,1-2.16-1.51A6.793,6.793,0,0,1,7.41-4.21a8.648,8.648,0,0,1-.49-2.97,8.269,8.269,0,0,1,.515-2.97A6.819,6.819,0,0,1,8.88-12.47,6.516,6.516,0,0,1,11.1-13.98a7.374,7.374,0,0,1,2.865-.54,6.968,6.968,0,0,1,2.72.5,6.853,6.853,0,0,1,2.07,1.33l-.7.99a.6.6,0,0,1-.175.18.488.488,0,0,1-.275.07.789.789,0,0,1-.445-.19,6.538,6.538,0,0,0-.67-.425,5.282,5.282,0,0,0-1.025-.425,5.184,5.184,0,0,0-1.52-.19,5,5,0,0,0-1.96.375,4.338,4.338,0,0,0-1.535,1.08,4.9,4.9,0,0,0-1,1.73A7.048,7.048,0,0,0,9.1-7.18a6.808,6.808,0,0,0,.37,2.33,5.1,5.1,0,0,0,1.02,1.73,4.324,4.324,0,0,0,1.53,1.08,4.852,4.852,0,0,0,1.9.37,7.492,7.492,0,0,0,1.115-.075,4.782,4.782,0,0,0,.91-.225,3.988,3.988,0,0,0,.785-.385,5.25,5.25,0,0,0,.73-.565.8.8,0,0,1,.17-.115A.419.419,0,0,1,17.82-3.08Zm8.36-1.43a14.88,14.88,0,0,0-2.02.185,5.557,5.557,0,0,0-1.35.385,1.833,1.833,0,0,0-.75.565,1.226,1.226,0,0,0-.23.725,1.573,1.573,0,0,0,.125.655,1.22,1.22,0,0,0,.34.45,1.363,1.363,0,0,0,.505.255,2.362,2.362,0,0,0,.63.08,3.535,3.535,0,0,0,.825-.09,3.284,3.284,0,0,0,.7-.255,3.546,3.546,0,0,0,.63-.4,5.61,5.61,0,0,0,.59-.55ZM20.46-8.74A5.813,5.813,0,0,1,22.3-9.95a5.806,5.806,0,0,1,2.185-.4,3.9,3.9,0,0,1,1.54.285,3.168,3.168,0,0,1,1.13.8,3.382,3.382,0,0,1,.695,1.22,4.974,4.974,0,0,1,.235,1.57V0h-.87a.83.83,0,0,1-.44-.095.655.655,0,0,1-.24-.355l-.21-.89a8.41,8.41,0,0,1-.77.635,4.931,4.931,0,0,1-.795.47A4.06,4.06,0,0,1,23.88.06a5.007,5.007,0,0,1-1.04.1,3.732,3.732,0,0,1-1.125-.165,2.527,2.527,0,0,1-.915-.5,2.387,2.387,0,0,1-.615-.85,2.926,2.926,0,0,1-.225-1.19A2.254,2.254,0,0,1,20.285-3.7a2.929,2.929,0,0,1,1.06-.995,6.815,6.815,0,0,1,1.92-.72,14.353,14.353,0,0,1,2.915-.32v-.74a2.583,2.583,0,0,0-.49-1.72,1.8,1.8,0,0,0-1.44-.57,3.137,3.137,0,0,0-1.075.16,4.146,4.146,0,0,0-.75.355q-.315.2-.55.355a.851.851,0,0,1-.485.16.554.554,0,0,1-.345-.11.917.917,0,0,1-.235-.26ZM33.76.16a2.509,2.509,0,0,1-1.895-.69A2.725,2.725,0,0,1,31.2-2.5V-8.58H30.02a.407.407,0,0,1-.285-.1A.406.406,0,0,1,29.62-9v-.79l1.65-.23.44-3.03a.471.471,0,0,1,.155-.265.448.448,0,0,1,.3-.095h.99V-10h2.88v1.42H33.15v5.95a1.217,1.217,0,0,0,.3.9,1.022,1.022,0,0,0,.755.3,1.379,1.379,0,0,0,.465-.07A1.854,1.854,0,0,0,35-1.665q.14-.085.24-.155a.325.325,0,0,1,.18-.07.239.239,0,0,1,.155.045.561.561,0,0,1,.115.145l.58.94a3.369,3.369,0,0,1-1.14.68A3.978,3.978,0,0,1,33.76.16Zm9.52-4.67a14.88,14.88,0,0,0-2.02.185,5.557,5.557,0,0,0-1.35.385,1.833,1.833,0,0,0-.75.565,1.226,1.226,0,0,0-.23.725,1.573,1.573,0,0,0,.125.655,1.22,1.22,0,0,0,.34.45,1.363,1.363,0,0,0,.505.255,2.362,2.362,0,0,0,.63.08,3.535,3.535,0,0,0,.825-.09,3.284,3.284,0,0,0,.705-.255,3.546,3.546,0,0,0,.63-.4,5.61,5.61,0,0,0,.59-.55ZM37.56-8.74A5.813,5.813,0,0,1,39.4-9.95a5.806,5.806,0,0,1,2.185-.4,3.9,3.9,0,0,1,1.54.285,3.168,3.168,0,0,1,1.13.8,3.382,3.382,0,0,1,.695,1.22,4.974,4.974,0,0,1,.235,1.57V0h-.87a.83.83,0,0,1-.44-.095.655.655,0,0,1-.24-.355l-.21-.89a8.41,8.41,0,0,1-.77.635,4.931,4.931,0,0,1-.795.47A4.06,4.06,0,0,1,40.98.06a5.007,5.007,0,0,1-1.04.1,3.732,3.732,0,0,1-1.125-.165,2.527,2.527,0,0,1-.915-.5,2.387,2.387,0,0,1-.615-.85,2.927,2.927,0,0,1-.225-1.19A2.254,2.254,0,0,1,37.385-3.7a2.929,2.929,0,0,1,1.06-.995,6.815,6.815,0,0,1,1.92-.72,14.353,14.353,0,0,1,2.915-.32v-.74a2.583,2.583,0,0,0-.49-1.72,1.8,1.8,0,0,0-1.44-.57,3.137,3.137,0,0,0-1.075.16,4.146,4.146,0,0,0-.75.355q-.315.2-.55.355a.851.851,0,0,1-.485.16.554.554,0,0,1-.345-.11.917.917,0,0,1-.235-.26Zm12.25-6.02V0H47.85V-14.76Zm11.66,4.6L55.83,2.95a.823.823,0,0,1-.24.34.692.692,0,0,1-.44.12H53.7L55.56-.64l-4.17-9.52h1.7a.581.581,0,0,1,.39.12.7.7,0,0,1,.2.27l2.58,6.1q.08.23.155.465t.125.465q.07-.24.15-.475t.17-.465l2.49-6.09a.647.647,0,0,1,.22-.28.56.56,0,0,1,.34-.11Zm7.3,1.75a.546.546,0,0,1-.17.185.435.435,0,0,1-.23.055.735.735,0,0,1-.355-.11q-.2-.11-.47-.24a4.556,4.556,0,0,0-.645-.24,3.109,3.109,0,0,0-.88-.11,2.62,2.62,0,0,0-.765.1,1.813,1.813,0,0,0-.585.29,1.294,1.294,0,0,0-.37.44,1.183,1.183,0,0,0-.13.545.906.906,0,0,0,.225.63,1.93,1.93,0,0,0,.59.43,5.75,5.75,0,0,0,.83.325q.465.145.95.3t.95.365a3.466,3.466,0,0,1,.83.51,2.393,2.393,0,0,1,.59.735,2.243,2.243,0,0,1,.225,1.05A3.351,3.351,0,0,1,69.1-1.825a2.877,2.877,0,0,1-.75,1.045,3.549,3.549,0,0,1-1.225.69,5.144,5.144,0,0,1-1.67.25,5.255,5.255,0,0,1-1.94-.35,4.86,4.86,0,0,1-1.49-.89l.46-.75a.6.6,0,0,1,.2-.215.6.6,0,0,1,.32-.075.682.682,0,0,1,.39.14q.2.14.48.3a3.634,3.634,0,0,0,.68.3,3.166,3.166,0,0,0,1,.135,2.723,2.723,0,0,0,.87-.125,1.787,1.787,0,0,0,.615-.34,1.376,1.376,0,0,0,.365-.5,1.482,1.482,0,0,0,.12-.59.992.992,0,0,0-.225-.665,1.93,1.93,0,0,0-.59-.455,4.738,4.738,0,0,0-.835-.33q-.47-.14-.96-.3a9.836,9.836,0,0,1-.96-.37,3.3,3.3,0,0,1-.835-.53,2.463,2.463,0,0,1-.59-.78,2.532,2.532,0,0,1-.225-1.12,2.7,2.7,0,0,1,.245-1.13,2.8,2.8,0,0,1,.71-.95,3.5,3.5,0,0,1,1.15-.655,4.632,4.632,0,0,1,1.565-.245A4.957,4.957,0,0,1,67.8-10a4.182,4.182,0,0,1,1.4.88ZM74.65.16a2.51,2.51,0,0,1-1.9-.69A2.725,2.725,0,0,1,72.09-2.5V-8.58H70.91a.407.407,0,0,1-.285-.1A.406.406,0,0,1,70.51-9v-.79l1.65-.23.44-3.03a.471.471,0,0,1,.155-.265.448.448,0,0,1,.295-.095h.99V-10h2.88v1.42H74.04v5.95a1.217,1.217,0,0,0,.295.9,1.022,1.022,0,0,0,.755.3,1.379,1.379,0,0,0,.465-.07,1.854,1.854,0,0,0,.335-.155q.14-.085.24-.155a.325.325,0,0,1,.18-.07.239.239,0,0,1,.155.045.561.561,0,0,1,.115.145l.58.94a3.369,3.369,0,0,1-1.14.68A3.978,3.978,0,0,1,74.65.16Z" transform="translate(167 103)" fill="#d0eae2"></path></g></svg>