<svg xmlns="http://www.w3.org/2000/svg" id="Group_42" data-name="Group 42" width="91.086" height="91.086" viewBox="0 0 91.086 91.086"><rect id="Rectangle_31" data-name="Rectangle 31" width="91.086" height="91.086" fill="#56c02b"></rect><path id="Path_123" data-name="Path 123" d="M453.4,580.74v3.227h.057l2.151-2.264h0v14.1h3.114V577.4H456.23Z" transform="translate(-446.72 -569.758)" fill="#fff"></path><path id="Path_124" data-name="Path 124" d="M471.591,583.231a2.867,2.867,0,0,0-2.6,1.245h0v-4.585h5.321V577.4h-8.152v10.36h2.831v-.4c0-1.076.51-1.7,1.359-1.7.962,0,1.3.623,1.3,1.642v4.416c0,.963-.34,1.642-1.3,1.642-1.076,0-1.415-.679-1.415-1.811v-2.321H466.1v2.094c0,2.774,1.132,4.586,4.246,4.586s4.416-1.642,4.416-4.189V587.25c-.057-2.831-1.528-4.019-3.17-4.019" transform="translate(-452.23 -569.758)" fill="#fff"></path><g id="Group_40" data-name="Group 40" transform="translate(22.757 36.117)"><path id="Path_125" data-name="Path 125" d="M506.087,672.7a.243.243,0,0,1,.227.226v6.623a.243.243,0,0,1-.227.226h-2.661a.243.243,0,0,1-.226-.226v-6.623a.244.244,0,0,1,.226-.226Z" transform="translate(-491.085 -647.225)" fill="#fff"></path><path id="Path_126" data-name="Path 126" d="M526.239,690.2H482.027a.243.243,0,0,0-.227.227v2.717a.244.244,0,0,0,.227.226h44.213a.243.243,0,0,0,.226-.226v-2.717a.243.243,0,0,0-.226-.227" transform="translate(-481.8 -654.818)" fill="#fff"></path><path id="Path_127" data-name="Path 127" d="M526.239,699.7H482.027a.243.243,0,0,0-.227.227v2.717a.243.243,0,0,0,.227.226h44.213a.243.243,0,0,0,.226-.226v-2.717a.243.243,0,0,0-.226-.227" transform="translate(-481.8 -658.94)" fill="#fff"></path><path id="Path_128" data-name="Path 128" d="M539.729,658.715a6.506,6.506,0,0,0-3.85-1.415,5.078,5.078,0,0,0-3.566,1.529.432.432,0,0,0-.113.283v.226a.432.432,0,0,0,.113.283.347.347,0,0,0,.34.057h.057c.057-.057.17-.057.226-.113a3.257,3.257,0,0,1,1.755-.4,6.6,6.6,0,0,1,4.585,1.925l.057.057a.514.514,0,0,0,.4.17.611.611,0,0,0,.4-.17l.057-.057a6.881,6.881,0,0,1,4.585-1.925,3.256,3.256,0,0,1,1.755.4.781.781,0,0,0,.227.17c.056,0,.17.057.283,0a.359.359,0,0,0,.283-.34v-.226a.432.432,0,0,0-.113-.283,5.107,5.107,0,0,0-3.623-1.529,5.855,5.855,0,0,0-3.849,1.359" transform="translate(-503.668 -640.543)" fill="#fff"></path><path id="Path_129" data-name="Path 129" d="M540.409,628.209c-.113.057-.17.113-.17.226l-.056.17a.375.375,0,0,0,.056.34.312.312,0,0,0,.283.17h.057a.34.34,0,0,0,.226-.057,1.151,1.151,0,0,1,.283-.057,3.9,3.9,0,0,1,3.17,2.038v.057a.565.565,0,0,0,.283.226h.113a.341.341,0,0,0,.227-.057h.057a4.129,4.129,0,0,1,1.981-.51,3.193,3.193,0,0,1,2.038.623l.17.17c.057,0,.113.057.17.057h.113a.208.208,0,0,0,.17-.057c.113-.057.17-.113.17-.226l.057-.113V631.1a.208.208,0,0,0-.057-.17,3.354,3.354,0,0,0-3-1.812,4.977,4.977,0,0,0-1.585.283,3.788,3.788,0,0,0-3-1.7,6.259,6.259,0,0,0-1.755.51" transform="translate(-507.122 -627.7)" fill="#fff"></path><path id="Path_130" data-name="Path 130" d="M524.1,639.051v.226a.311.311,0,0,0,.17.283.615.615,0,0,0,.283.057h.056c.057-.057.113-.057.17-.113a3.391,3.391,0,0,1,1.7-.4,5.622,5.622,0,0,1,3.51,1.3l.057.056a.8.8,0,0,0,.34.113h.057a.4.4,0,0,0,.34-.17l.057-.057a5.254,5.254,0,0,1,3.906-1.811,2.1,2.1,0,0,1,1.132.226.3.3,0,0,0,.227.113h.283a.322.322,0,0,0,.227-.4v-.17c0-.113-.057-.17-.113-.283a4.4,4.4,0,0,0-2.83-1.132,5.23,5.23,0,0,0-3.284,1.359,5.234,5.234,0,0,0-2.944-.962,4.172,4.172,0,0,0-3.114,1.472.289.289,0,0,0-.227.283" transform="translate(-500.154 -631.692)" fill="#fff"></path><path id="Path_131" data-name="Path 131" d="M484.6,638.613a4.808,4.808,0,0,1,4.812-4.812h.283a6.491,6.491,0,0,1,12.964.51,5.973,5.973,0,0,1-.679,2.831,7.249,7.249,0,0,1-1.585,14.322c-.283,0-9.68-.057-9.68-.057h0a5.17,5.17,0,0,1-5.152-5.151,4.917,4.917,0,0,1,1.415-3.51A4.69,4.69,0,0,1,484.6,638.613Z" transform="translate(-483.015 -627.743)" fill="#fff"></path></g><g id="Group_41" data-name="Group 41" transform="translate(28.985 7.529)"><path id="Path_132" data-name="Path 132" d="M493.1,577.4h2.774v.962h-1.585V580.4h1.189v.962h-1.189v3.114H493.1Z" transform="translate(-492.93 -577.287)" fill="#fff"></path><path id="Path_133" data-name="Path 133" d="M499.1,577.4h1.189v6.114H501.7v.962h-2.6Z" transform="translate(-495.534 -577.287)" fill="#fff"></path><path id="Path_134" data-name="Path 134" d="M504.8,582.578v-3.453a1.815,1.815,0,1,1,3.623,0v3.453a1.724,1.724,0,0,1-1.811,1.925A1.7,1.7,0,0,1,504.8,582.578Zm2.434.226v-3.793c0-.453-.17-.736-.623-.736-.4,0-.623.283-.623.736V582.8c0,.453.17.736.623.736A.659.659,0,0,0,507.234,582.8Z" transform="translate(-498.007 -577.2)" fill="#fff"></path><path id="Path_135" data-name="Path 135" d="M513.789,581.293v3.283H512.6V577.5h1.755A1.426,1.426,0,0,1,516,579.085v.906c0,.793-.283,1.189-.962,1.359l1.132,3.227h-1.245Zm0-2.887v2.208h.4a.508.508,0,0,0,.566-.566v-1.076c0-.4-.17-.566-.566-.566Z" transform="translate(-501.391 -577.33)" fill="#fff"></path><path id="Path_136" data-name="Path 136" d="M519.5,584.576l1.359-7.076h1.359l1.359,7.076h-1.246l-.226-1.3h-1.245l-.227,1.3Zm1.528-2.265h.962l-.453-2.831h0Z" transform="translate(-504.385 -577.33)" fill="#fff"></path><path id="Path_137" data-name="Path 137" d="M529.9,577.4h2.831v.962h-1.642V580.4h1.189v.962h-1.189v2.151h1.642v.962H529.9Z" transform="translate(-508.898 -577.287)" fill="#fff"></path><path id="Path_138" data-name="Path 138" d="M538.4,577.4h2.774v.962h-1.585V580.4h1.189v.962h-1.189v3.114H538.4Z" transform="translate(-512.586 -577.287)" fill="#fff"></path><path id="Path_139" data-name="Path 139" d="M543.3,584.576l1.359-7.076h1.359l1.359,7.076H546.13l-.226-1.3h-1.245l-.226,1.3Zm1.528-2.265h.962l-.453-2.831h0Z" transform="translate(-514.712 -577.33)" fill="#fff"></path><path id="Path_140" data-name="Path 140" d="M554.753,577.4v5.378c0,1.076-.453,1.811-1.7,1.811a1.6,1.6,0,0,1-1.755-1.811V577.4h1.189v5.491c0,.4.17.679.566.679s.566-.283.566-.679V577.4Z" transform="translate(-518.183 -577.287)" fill="#fff"></path><path id="Path_141" data-name="Path 141" d="M559.819,580.1v4.472H558.8V577.5h1.189l1.3,4.076V577.5h1.019v7.076h-1.132Z" transform="translate(-521.437 -577.33)" fill="#fff"></path><path id="Path_142" data-name="Path 142" d="M566,584.576l1.359-7.076h1.359l1.359,7.076h-1.245l-.226-1.3h-1.245l-.227,1.3Zm1.472-2.265h.962l-.453-2.831h0Z" transform="translate(-524.561 -577.33)" fill="#fff"></path><path id="Path_143" data-name="Path 143" d="M492.8,595.9h3.17v.962h-.962v6.114h-1.189v-6.114h-.962V595.9Z" transform="translate(-492.8 -585.314)" fill="#fff"></path><path id="Path_144" data-name="Path 144" d="M499.6,595.9h2.831v.962h-1.642V598.9h1.189v.962h-1.189v2.151h1.642v.962H499.6Z" transform="translate(-495.751 -585.314)" fill="#fff"></path><path id="Path_145" data-name="Path 145" d="M507.089,599.793v3.283H505.9V596h1.755a1.426,1.426,0,0,1,1.642,1.585v.906c0,.793-.283,1.189-.962,1.359l1.132,3.227h-1.245Zm0-2.887v2.208h.4a.508.508,0,0,0,.566-.566v-1.076c0-.4-.17-.566-.566-.566Z" transform="translate(-498.484 -585.357)" fill="#fff"></path><path id="Path_146" data-name="Path 146" d="M514.489,599.793v3.283H513.3V596h1.755a1.426,1.426,0,0,1,1.642,1.585v.906c0,.793-.283,1.189-.962,1.359l1.132,3.227h-1.245Zm0-2.887v2.208h.4a.508.508,0,0,0,.566-.566v-1.076c0-.4-.17-.566-.566-.566Z" transform="translate(-501.695 -585.357)" fill="#fff"></path><path id="Path_147" data-name="Path 147" d="M520.6,595.9h2.831v.962h-1.642V598.9h1.189v.962h-1.189v2.151h1.642v.962H520.6Z" transform="translate(-504.862 -585.314)" fill="#fff"></path><path id="Path_148" data-name="Path 148" d="M526.7,601.418v-.962h1.132v.962c0,.4.17.623.566.623s.566-.227.566-.623v-.283a1.371,1.371,0,0,0-.51-1.019l-.679-.679a2.446,2.446,0,0,1-1.019-1.925v-.226a1.492,1.492,0,0,1,1.7-1.585c1.189,0,1.642.566,1.642,1.642v.566h-1.076v-.623c0-.4-.17-.623-.566-.623a.508.508,0,0,0-.566.566v.17c0,.4.227.623.566.962l.792.736a2.535,2.535,0,0,1,.962,1.868v.34a1.526,1.526,0,0,1-1.755,1.642C527.153,603,526.7,602.323,526.7,601.418Z" transform="translate(-507.509 -585.227)" fill="#fff"></path><path id="Path_149" data-name="Path 149" d="M533.5,595.9h3.17v.962h-.962v6.114h-1.189v-6.114h-.962V595.9Z" transform="translate(-510.46 -585.314)" fill="#fff"></path><path id="Path_150" data-name="Path 150" d="M541.489,599.793v3.283H540.3V596h1.755a1.426,1.426,0,0,1,1.642,1.585v.906c0,.793-.283,1.189-.962,1.359l1.132,3.227h-1.245Zm0-2.887v2.208h.4a.508.508,0,0,0,.566-.566v-1.076c0-.4-.17-.566-.566-.566Z" transform="translate(-513.41 -585.357)" fill="#fff"></path><path id="Path_151" data-name="Path 151" d="M547.6,595.9h2.831v.962h-1.642V598.9h1.189v.962h-1.189v2.151h1.642v.962H547.6Z" transform="translate(-516.577 -585.314)" fill="#fff"></path></g></svg>