<svg xmlns="http://www.w3.org/2000/svg" id="Group_46" data-name="Group 46" width="91.086" height="91.086" viewBox="0 0 91.086 91.086"><rect id="Rectangle_33" data-name="Rectangle 33" width="91.086" height="91.086" transform="translate(0)" fill="#3f7e44"></rect><path id="Path_177" data-name="Path 177" d="M100.221,577.4v18.4H97.164V581.7h-.057l-2.151,2.264H94.9V580.74l2.887-3.34Z" transform="translate(-88.729 -569.758)" fill="#fff"></path><path id="Path_178" data-name="Path 178" d="M115.748,581.289v1.585a3.031,3.031,0,0,1-2.095,3,2.806,2.806,0,0,1,2.264,3.114v2.717c0,2.547-1.359,4.189-4.472,4.189s-4.246-1.811-4.246-4.585v-2.434h2.831v2.6c0,1.076.4,1.812,1.415,1.812.962,0,1.359-.679,1.359-1.642v-3.057c0-.962-.453-1.472-1.528-1.472h-1.3v-2.378h1.189c1.019,0,1.642-.509,1.642-1.472v-1.981c0-1.019-.34-1.642-1.3-1.642s-1.3.623-1.3,1.812v1.868H107.37v-1.642c0-2.717,1.132-4.586,4.3-4.586,2.831,0,4.076,1.585,4.076,4.189" transform="translate(-94.066 -569.627)" fill="#fff"></path><path id="Path_179" data-name="Path 179" d="M173.2,651.813a41.695,41.695,0,0,0-66.914,0,2.391,2.391,0,0,1-.283.4c.057.113.17.227.283.4a41.694,41.694,0,0,0,66.914,0,2.4,2.4,0,0,1,.283-.4,1.722,1.722,0,0,0-.283-.4m-44.666-8.322c.17-.283.793-1.019.849-1.132.17-.226.453-.226.679-.283s.509.057.509.227a1.629,1.629,0,0,1-.17.906,2.527,2.527,0,0,1-1.472.679c-.34-.057-.453-.283-.4-.4m-.736,1.415c.057-.057.057-.057.057-.113a1.823,1.823,0,0,1,1.132-.4c.34-.057.793.113.849.34s-.849.679-1.076.793c-.51.453-1.245,1.359-1.7,1.472a.317.317,0,0,1-.34-.057c.34-.623.679-1.358,1.076-2.038m7.529,15.511a4.072,4.072,0,0,1-.849,1.812,2.962,2.962,0,0,1-1.925.736c-.623-.057-.736-1.755-.736-2.6,0-.283-.453.623-.679-1.245-.17-1.189-.906.113-.962-.679s-.453-.623-.849-1.132-.906.057-1.415.283c-.566.226-.34.4-1.076.113h-.057a13.612,13.612,0,0,1-1.132-5.491,11.835,11.835,0,0,1,.057-1.415.122.122,0,0,1,.113-.113c.736-.906.736-1.076.736-1.076l.849-.283a19.1,19.1,0,0,1,2.321.566c.793.283,2.095,1.019,2.831.679.566-.226.962-.509.906-.962-.057-.566-.51-.679-1.019-.34-.226.113-.623-.849-.962-.793s.4,1.189.113,1.189c-.283.056-.849-1.189-.962-1.359s-.51-.679-.906-.283c-.849.792-2.151.736-2.434.962-.849.623-1.019-.227-1.019-.679.057-.113.057-.226.113-.34a1.749,1.749,0,0,1,1.585-.17c.34.227.623-.057.793-.226a.431.431,0,0,0,0-.566c-.113-.17.17-.34.4-.4.17-.057.793-.51,1.076-.623a3.429,3.429,0,0,1,2.151,0,1.162,1.162,0,0,0,1.415-.283,3.058,3.058,0,0,1,1.019-.849c.226-.113-.51-.736-1.076-.057-.566.736-.849.793-1.132.793s-1.868-.4-2.095-.906c-.17-.509.509-.906,1.132-1.189a17.87,17.87,0,0,1,2.661-.4c.849-.17,1.925-.623,2.491-.227.566.34-2.264,1.019-1.359,1.529.34.17,1.812-.849,2.321-1.132,1.189-.623-1.189-.849-.849-2.094.34-1.415-2.944-.906-4.529-.736a13.855,13.855,0,0,1,7.586-2.208,14.027,14.027,0,0,1,13.643,10.756c0,.283-.057.51-.057.623a.9.9,0,0,1-1.642.113c-.17-.226-.736-.792-.736.227,0,.962.962,1.076.057,1.642a3.191,3.191,0,0,1-1.472.566,2.091,2.091,0,0,0-.736,1.7c.113.51,1.359,1.981.453,1.925a5.526,5.526,0,0,1-2.208-1.925c-.283-.792-.623-1.528-.849-2.151a.837.837,0,0,0-1.3-.4c-.51.34.113.679-.226,1.415s-.623,1.359-1.132.792c-1.359-1.585-3.34-.792-3.68-2.547-.17-.962-.962-.849-1.642-1.415-.679-.509-1.076-.849-1.189-.453-.113.34,2.151,2.151,2.321,2.6.226.679-.679,1.3-1.359,1.415-.679.17-.962-.4-1.642-1.076s-.962-1.189-.962-.623a2.982,2.982,0,0,0,1.3,2.321c.566.34,1.189.509,1.019,1.132-.17.566,0,.227-.623.906a1.85,1.85,0,0,0-.736,1.7c.057.906-.17.906-.34,1.642-.283.849-.623.226-.906,1.3m15.115-5.6c.453-.057,1.189.622.906.849a1.329,1.329,0,0,1-1.359-.113c-.34-.226.226-.736.453-.736m-.623-.4c-.17-.057-.283-.227-.4-.566s.17-.566.453-.4.679.566.679.793-.566.226-.736.17m-6.171-.057a1.329,1.329,0,0,1-1.359-.113c-.34-.283.226-.736.453-.736.453-.057,1.189.623.906.849m-5.774,2.774c-.17.34-.736,2.661-1.076,2.378s.17-2.717.226-2.944c.566-.962,1.812-.906.849.566m1.925,9.171a15.229,15.229,0,0,1-3.963-.566.6.6,0,0,1-.17-.679,3.246,3.246,0,0,1,2.774-1.7c2.264-.226,5.265,1.472,5.774,1.189.453-.283,1.415-1.529,2.831-1.472a2.591,2.591,0,0,1,1.3.34,14.018,14.018,0,0,1-8.548,2.887m9.907-4.076a3.9,3.9,0,0,0-.453-.17c-.793-.4-.679.226-1.076.113s.453-1.019-.736-.283c-1.132.736-.849-.113-1.3-1.359a2.54,2.54,0,0,1,1.472-3,22.535,22.535,0,0,1,2.547-.679c1.7-.4,2.038-1.415,2.378-.792l.17.34a1.929,1.929,0,0,1,.226.906,14.305,14.305,0,0,1-3.227,4.925m3.85-7.076c-.4-.113-1.981-2.264-.736-3.736.226-.226-.4-.906-.226-.962.679-.057,1.019.4,1.245.962v.793a12.672,12.672,0,0,1-.283,2.944" transform="translate(-93.546 -594.75)" fill="#fff"></path><g id="Group_45" data-name="Group 45" transform="translate(28.985 7.586)"><path id="Path_180" data-name="Path 180" d="M135.2,577.4h.849v4.3h1.019v.679H135.2Z" transform="translate(-135.2 -577.343)" fill="#fff"></path><path id="Path_181" data-name="Path 181" d="M139.2,581.093v-2.434a1.193,1.193,0,0,1,1.245-1.359,1.207,1.207,0,0,1,1.3,1.359v2.434a1.207,1.207,0,0,1-1.3,1.359A1.246,1.246,0,0,1,139.2,581.093Zm1.7.113v-2.661c0-.283-.113-.509-.453-.509a.462.462,0,0,0-.453.509v2.661c0,.283.113.509.453.509S140.9,581.489,140.9,581.206Z" transform="translate(-136.936 -577.3)" fill="#fff"></path><path id="Path_182" data-name="Path 182" d="M144.3,577.4h2.208v.679h-.679v4.3h-.849v-4.3H144.3Z" transform="translate(-139.148 -577.343)" fill="#fff"></path><path id="Path_183" data-name="Path 183" d="M148.9,577.4h2.208v.679h-.679v4.3h-.849v-4.3H148.9Z" transform="translate(-141.144 -577.343)" fill="#fff"></path><path id="Path_184" data-name="Path 184" d="M152.8,582.382l.962-4.982h.962l.962,4.982h-.849l-.17-.906h-.906l-.17.906Zm1.019-1.585h.679l-.34-1.981h0Z" transform="translate(-142.837 -577.343)" fill="#fff"></path><path id="Path_185" data-name="Path 185" d="M160.1,581.093v-2.434a1.193,1.193,0,0,1,1.245-1.359c.906,0,1.189.51,1.189,1.245v.566h-.793v-.679c0-.283-.113-.509-.4-.509a.462.462,0,0,0-.453.509v2.661c0,.283.113.509.453.509s.4-.17.4-.509v-.906h.793v.849c0,.736-.283,1.245-1.189,1.245C160.44,582.395,160.1,581.829,160.1,581.093Z" transform="translate(-146.004 -577.3)" fill="#fff"></path><path id="Path_186" data-name="Path 186" d="M165.3,581.093v-2.434a1.193,1.193,0,0,1,1.245-1.359,1.207,1.207,0,0,1,1.3,1.359v2.434a1.207,1.207,0,0,1-1.3,1.359A1.246,1.246,0,0,1,165.3,581.093Zm1.7.113v-2.661c0-.283-.113-.509-.453-.509a.462.462,0,0,0-.453.509v2.661c0,.283.113.509.453.509S167,581.489,167,581.206Z" transform="translate(-148.26 -577.3)" fill="#fff"></path><path id="Path_187" data-name="Path 187" d="M171.436,579.312v3.17H170.7V577.5h.849l.906,2.887V577.5h.679v4.982H172.4Z" transform="translate(-150.603 -577.387)" fill="#fff"></path><path id="Path_188" data-name="Path 188" d="M175.9,577.4h2.208v.679h-.679v4.3h-.849v-4.3H175.9Z" transform="translate(-152.859 -577.343)" fill="#fff"></path><path id="Path_189" data-name="Path 189" d="M181.549,580.161v2.321H180.7V577.5h1.245c.849,0,1.132.4,1.132,1.132v.623c0,.566-.17.849-.679.962l.793,2.264h-.906Zm0-2.038v1.529h.283a.358.358,0,0,0,.4-.4v-.736c0-.283-.113-.4-.4-.4Z" transform="translate(-154.942 -577.387)" fill="#fff"></path><path id="Path_190" data-name="Path 190" d="M185.8,581.093v-2.434a1.193,1.193,0,0,1,1.245-1.359,1.207,1.207,0,0,1,1.3,1.359v2.434a1.207,1.207,0,0,1-1.3,1.359A1.246,1.246,0,0,1,185.8,581.093Zm1.7.113v-2.661c0-.283-.113-.509-.453-.509a.462.462,0,0,0-.453.509v2.661c0,.283.113.509.453.509S187.5,581.489,187.5,581.206Z" transform="translate(-157.155 -577.3)" fill="#fff"></path><path id="Path_191" data-name="Path 191" d="M192.8,577.4h.849v4.982H192.8Z" transform="translate(-160.192 -577.343)" fill="#fff"></path><path id="Path_192" data-name="Path 192" d="M195.3,577.4h.849v4.3h1.019v.679H195.3Z" transform="translate(-161.277 -577.343)" fill="#fff"></path><path id="Path_193" data-name="Path 193" d="M135.2,594.093v-2.434a1.193,1.193,0,0,1,1.245-1.359c.906,0,1.189.509,1.189,1.245v.566h-.793v-.679c0-.283-.113-.51-.4-.51a.462.462,0,0,0-.453.51v2.661c0,.283.113.51.453.51s.4-.17.4-.51v-.906h.793v.849c0,.736-.283,1.245-1.189,1.245C135.54,595.451,135.2,594.885,135.2,594.093Z" transform="translate(-135.2 -582.941)" fill="#fff"></path><path id="Path_194" data-name="Path 194" d="M140.1,595.482l.962-4.982h.962l.962,4.982h-.849l-.17-.906h-.906l-.17.906Zm1.019-1.585h.679l-.34-1.981h0Z" transform="translate(-137.326 -583.027)" fill="#fff"></path><path id="Path_195" data-name="Path 195" d="M148.164,592.155h0l-.566,3.227h-.4l-.623-3.227h0v3.227H145.9V590.4h.962l.566,2.831h0l.51-2.831h1.076v4.982h-.793v-3.227Z" transform="translate(-139.843 -582.984)" fill="#fff"></path><path id="Path_196" data-name="Path 196" d="M152.3,590.4h1.189c.849,0,1.132.4,1.132,1.076v.51a.756.756,0,0,1-.51.793.807.807,0,0,1,.623.849v.679c0,.736-.34,1.076-1.132,1.076h-1.3V590.4Zm.849,2.151h.283c.283,0,.4-.113.4-.4v-.623c0-.283-.113-.4-.4-.4h-.283Zm0,.623v1.585h.4c.283,0,.4-.113.4-.4v-.792c0-.283-.113-.4-.4-.4Z" transform="translate(-142.62 -582.984)" fill="#fff"></path><path id="Path_197" data-name="Path 197" d="M157.5,590.4h.849v4.982H157.5Z" transform="translate(-144.876 -582.984)" fill="#fff"></path><path id="Path_198" data-name="Path 198" d="M159.7,595.482l.962-4.982h.962l.962,4.982h-.849l-.17-.906h-.906l-.17.906Zm1.076-1.585h.679l-.34-1.981h0Z" transform="translate(-145.83 -583.027)" fill="#fff"></path><path id="Path_199" data-name="Path 199" d="M167.864,592.155h0l-.566,3.227h-.4l-.623-3.227h0v3.227H165.6V590.4h.962l.566,2.831h0l.51-2.831h1.076v4.982h-.793v-3.227Z" transform="translate(-148.39 -582.984)" fill="#fff"></path><path id="Path_200" data-name="Path 200" d="M172,590.4h1.981v.679h-1.189v1.415h.849v.679h-.849V594.7h1.189v.679H172Z" transform="translate(-151.167 -582.984)" fill="#fff"></path><path id="Path_201" data-name="Path 201" d="M177.136,592.311v3.17H176.4V590.5h.849l.906,2.887V590.5h.679v4.982H178.1Z" transform="translate(-153.076 -583.027)" fill="#fff"></path><path id="Path_202" data-name="Path 202" d="M181.5,590.4h2.208v.679h-.679v4.3h-.849v-4.3H181.5Z" transform="translate(-155.289 -582.984)" fill="#fff"></path><path id="Path_203" data-name="Path 203" d="M186.1,594.093v-2.434a1.193,1.193,0,0,1,1.245-1.359,1.207,1.207,0,0,1,1.3,1.359v2.434a1.207,1.207,0,0,1-1.3,1.359A1.193,1.193,0,0,1,186.1,594.093Zm1.7.113v-2.661c0-.283-.113-.51-.453-.51a.462.462,0,0,0-.453.51v2.661c0,.283.113.51.453.51S187.8,594.546,187.8,594.206Z" transform="translate(-157.285 -582.941)" fill="#fff"></path><path id="Path_204" data-name="Path 204" d="M193.1,594.093v-2.434a1.193,1.193,0,0,1,1.245-1.359c.906,0,1.189.509,1.189,1.245v.566h-.793v-.679c0-.283-.113-.51-.4-.51a.462.462,0,0,0-.453.51v2.661c0,.283.113.51.453.51s.4-.17.4-.51v-.906h.793v.849c0,.736-.283,1.245-1.189,1.245C193.44,595.451,193.1,594.885,193.1,594.093Z" transform="translate(-160.322 -582.941)" fill="#fff"></path><path id="Path_205" data-name="Path 205" d="M198.3,590.4h.849v4.3h1.019v.679H198.3Z" transform="translate(-162.579 -582.984)" fill="#fff"></path><path id="Path_206" data-name="Path 206" d="M202.4,590.4h.849v4.982H202.4Z" transform="translate(-164.358 -582.984)" fill="#fff"></path><path id="Path_207" data-name="Path 207" d="M207.264,592.155h0l-.566,3.227h-.4l-.623-3.227h0v3.227H205V590.4h.962l.566,2.831h0l.509-2.831h1.076v4.982h-.849Z" transform="translate(-165.486 -582.984)" fill="#fff"></path><path id="Path_208" data-name="Path 208" d="M211.1,595.482l.962-4.982h.962l.962,4.982h-.849l-.17-.906h-.906l-.17.906Zm1.019-1.585h.679l-.34-1.981h0Z" transform="translate(-168.133 -583.027)" fill="#fff"></path><path id="Path_209" data-name="Path 209" d="M216,590.4h2.208v.679h-.679v4.3h-.849v-4.3H216Z" transform="translate(-170.259 -582.984)" fill="#fff"></path><path id="Path_210" data-name="Path 210" d="M220.8,590.4h.849v4.982H220.8Z" transform="translate(-172.341 -582.984)" fill="#fff"></path><path id="Path_211" data-name="Path 211" d="M223.3,594.093v-2.434a1.193,1.193,0,0,1,1.245-1.359c.906,0,1.189.509,1.189,1.245v.566h-.793v-.679c0-.283-.113-.51-.4-.51a.462.462,0,0,0-.453.51v2.661c0,.283.113.51.453.51s.4-.17.4-.51v-.906h.793v.849c0,.736-.283,1.245-1.189,1.245C223.64,595.451,223.3,594.885,223.3,594.093Z" transform="translate(-173.426 -582.941)" fill="#fff"></path><path id="Path_212" data-name="Path 212" d="M228.5,594.093v-2.434a1.193,1.193,0,0,1,1.245-1.359,1.207,1.207,0,0,1,1.3,1.359v2.434a1.207,1.207,0,0,1-1.3,1.359A1.193,1.193,0,0,1,228.5,594.093Zm1.755.113v-2.661c0-.283-.113-.51-.453-.51a.462.462,0,0,0-.453.51v2.661c0,.283.113.51.453.51C230.085,594.716,230.255,594.546,230.255,594.206Z" transform="translate(-175.682 -582.941)" fill="#fff"></path></g></svg>