<svg xmlns="http://www.w3.org/2000/svg" id="Group_63" data-name="Group 63" width="91.086" height="91.086" viewBox="0 0 91.086 91.086"><rect id="XMLID_131_" width="91.086" height="91.086" transform="translate(0)" fill="#fcc30b"></rect><path id="XMLID_130_" d="M100.5,400.591h4.755l-4.133,15.851h3.057l4.076-15.511V398.1H100.5Z" transform="translate(-91.159 -390.458)" fill="#fff"></path><path id="XMLID_116_" d="M154.26,462.6a13.36,13.36,0,1,0,13.36,13.36,13.385,13.385,0,0,0-13.36-13.36m-.962,5.265a1,1,0,0,1,1.019-.906.983.983,0,0,1,.962.906v4.585a.984.984,0,0,1-.962.906,1.042,1.042,0,0,1-1.019-.906Zm.962,14.889a6.953,6.953,0,0,1-2.095-13.587v2.6a4.519,4.519,0,1,0,6.567,4.019,4.656,4.656,0,0,0-2.491-4.076v-2.6a6.9,6.9,0,0,1,4.868,6.623,6.806,6.806,0,0,1-6.85,7.02" transform="translate(-108.689 -418.444)" fill="#fff"></path><path id="XMLID_115_" d="M131.369,485.076A1.065,1.065,0,0,0,130.35,484h-5.831a1.077,1.077,0,0,0,0,2.151h5.831a1.028,1.028,0,0,0,1.019-1.076" transform="translate(-101.139 -427.729)" fill="#fff"></path><path id="XMLID_114_" d="M199.569,485.076A1.065,1.065,0,0,0,198.55,484h-5.831a1.077,1.077,0,0,0,0,2.151h5.831a1.063,1.063,0,0,0,1.019-1.076" transform="translate(-130.73 -427.729)" fill="#fff"></path><path id="XMLID_113_" d="M163.676,452.869a1.065,1.065,0,0,0,1.076-1.019v-5.831a1.077,1.077,0,0,0-2.151,0v5.774a1.112,1.112,0,0,0,1.076,1.076" transform="translate(-118.104 -410.807)" fill="#fff"></path><path id="XMLID_112_" d="M163.676,520.969a1.065,1.065,0,0,0,1.076-1.019v-5.831a1.077,1.077,0,0,0-2.151,0v5.831a1.105,1.105,0,0,0,1.076,1.019" transform="translate(-118.104 -440.356)" fill="#fff"></path><path id="XMLID_111_" d="M135.653,469.075a1.181,1.181,0,0,0-.34-1.472l-5.095-2.887a1.063,1.063,0,0,0-1.415.453,1.181,1.181,0,0,0,.34,1.472l5.095,2.887a1.136,1.136,0,0,0,1.415-.453" transform="translate(-103.385 -419.315)" fill="#fff"></path><path id="XMLID_110_" d="M194.753,502.875a1.181,1.181,0,0,0-.34-1.472l-5.095-2.887a1.063,1.063,0,0,0-1.415.453,1.181,1.181,0,0,0,.34,1.472l5.095,2.887a1.077,1.077,0,0,0,1.415-.453" transform="translate(-129.028 -433.98)" fill="#fff"></path><path id="XMLID_109_" d="M177.55,457.053a1.2,1.2,0,0,0,1.472-.34l2.887-5.095a1.063,1.063,0,0,0-.453-1.415,1.181,1.181,0,0,0-1.472.34l-2.887,5.095a1.015,1.015,0,0,0,.453,1.415" transform="translate(-124.336 -413.01)" fill="#fff"></path><path id="XMLID_101_" d="M143.677,516.253a1.2,1.2,0,0,0,1.472-.34l2.887-5.095a1.063,1.063,0,0,0-.453-1.415,1.181,1.181,0,0,0-1.472.34l-2.887,5.095a1.154,1.154,0,0,0,.453,1.415" transform="translate(-109.655 -438.697)" fill="#fff"></path><path id="XMLID_74_" d="M147.584,457.125a1.136,1.136,0,0,0,.453-1.415l-2.887-5.1a1.065,1.065,0,0,0-1.472-.34,1.19,1.19,0,0,0-.453,1.472l2.887,5.095a1.265,1.265,0,0,0,1.472.283" transform="translate(-109.655 -413.025)" fill="#fff"></path><path id="XMLID_73_" d="M181.584,516.125a1.136,1.136,0,0,0,.453-1.415l-2.887-5.095a1.065,1.065,0,0,0-1.472-.34,1.19,1.19,0,0,0-.453,1.472l2.887,5.095a1.093,1.093,0,0,0,1.472.283" transform="translate(-124.407 -438.625)" fill="#fff"></path><path id="XMLID_61_" d="M187.873,468.984a1.136,1.136,0,0,0,1.415.453l5.095-2.887a1.065,1.065,0,0,0,.34-1.472,1.19,1.19,0,0,0-1.472-.453l-5.095,2.887a1.121,1.121,0,0,0-.283,1.472" transform="translate(-128.998 -419.28)" fill="#fff"></path><path id="XMLID_45_" d="M128.8,502.984a1.136,1.136,0,0,0,1.415.453l5.095-2.887a1.065,1.065,0,0,0,.34-1.472,1.19,1.19,0,0,0-1.472-.453l-5.095,2.887a1.245,1.245,0,0,0-.283,1.472" transform="translate(-103.384 -434.032)" fill="#fff"></path><g id="Group_62" data-name="Group 62" transform="translate(26.041 7.586)"><path id="Path_356" data-name="Path 356" d="M130,398h3v1.019h-1.755v2.095h1.245v1.019h-1.245V404.4H133v1.019h-3Z" transform="translate(-130 -398)" fill="#fff"></path><path id="Path_357" data-name="Path 357" d="M137.576,400.774v4.642H136.5V398h1.245l1.359,4.246V398h1.019v7.416h-1.076Z" transform="translate(-132.82 -398)" fill="#fff"></path><path id="Path_358" data-name="Path 358" d="M144.4,398h3v1.019h-1.755v2.095h1.245v1.019h-1.245V404.4H147.4v1.019h-3Z" transform="translate(-136.248 -398)" fill="#fff"></path><path id="Path_359" data-name="Path 359" d="M152.245,402.019v3.4H151V398h1.812c1.245,0,1.7.623,1.7,1.642v.962a1.234,1.234,0,0,1-1.019,1.415l1.189,3.34h-1.3Zm0-3v2.321h.4a.543.543,0,0,0,.623-.623v-1.076a.543.543,0,0,0-.623-.623Z" transform="translate(-139.112 -398)" fill="#fff"></path><path id="Path_360" data-name="Path 360" d="M160.525,401.553h1.755v3.963h-.906v-.793a1.122,1.122,0,0,1-1.189.906c-1.076,0-1.585-.849-1.585-1.981v-3.566a1.757,1.757,0,0,1,1.868-1.981c1.359,0,1.755.793,1.755,1.868v.679h-1.132v-.906c0-.453-.17-.736-.623-.736s-.623.34-.623.793v3.963c0,.453.17.793.623.793.4,0,.623-.227.623-.736v-1.3h-.566Z" transform="translate(-142.409 -398.043)" fill="#fff"></path><path id="Path_361" data-name="Path 361" d="M166.6,398h1.245v7.416H166.6Z" transform="translate(-145.881 -398)" fill="#fff"></path><path id="Path_362" data-name="Path 362" d="M169.9,405.416,171.315,398h1.415l1.415,7.416h-1.3l-.226-1.359h-1.3l-.226,1.359Zm1.529-2.321h1.019l-.509-3h0Z" transform="translate(-147.312 -398)" fill="#fff"></path><path id="Path_363" data-name="Path 363" d="M131.245,421.319v3.4H130V417.3h1.812c1.245,0,1.7.623,1.7,1.642v.962a1.234,1.234,0,0,1-1.019,1.415l1.189,3.34h-1.3Zm0-2.944V420.7h.4a.543.543,0,0,0,.623-.623V419a.543.543,0,0,0-.623-.623Z" transform="translate(-130 -406.374)" fill="#fff"></path><path id="Path_364" data-name="Path 364" d="M137.6,417.4h1.245v7.416H137.6Z" transform="translate(-133.298 -406.418)" fill="#fff"></path><path id="Path_365" data-name="Path 365" d="M142.276,420.074v4.642H141.2V417.3h1.245l1.359,4.246V417.3h1.019v7.416h-1.076Z" transform="translate(-134.86 -406.374)" fill="#fff"></path><path id="Path_366" data-name="Path 366" d="M150.076,420.074v4.642H149V417.3h1.245l1.359,4.246V417.3h1.019v7.416h-1.076Z" transform="translate(-138.244 -406.374)" fill="#fff"></path><path id="Path_367" data-name="Path 367" d="M156.9,422.848v-3.566a1.871,1.871,0,1,1,3.736,0v3.566a1.871,1.871,0,1,1-3.736,0Zm2.547.17v-3.963c0-.453-.17-.793-.623-.793s-.623.34-.623.793v3.963c0,.453.17.793.623.793C159.221,423.81,159.447,423.471,159.447,423.018Z" transform="translate(-141.672 -406.374)" fill="#fff"></path><path id="Path_368" data-name="Path 368" d="M168.489,417.4l-1.415,7.416h-1.359L164.3,417.4h1.245l.849,5.152h0l.849-5.152Z" transform="translate(-144.883 -406.418)" fill="#fff"></path><path id="Path_369" data-name="Path 369" d="M171.3,424.816l1.415-7.416h1.415l1.415,7.416h-1.3l-.226-1.359h-1.3l-.226,1.359Zm1.528-2.378h1.019l-.51-3h0Z" transform="translate(-147.92 -406.418)" fill="#fff"></path><path id="Path_370" data-name="Path 370" d="M179.8,417.4h1.812c1.245,0,1.642.566,1.642,1.642v.736a1.093,1.093,0,0,1-.736,1.189,1.134,1.134,0,0,1,.906,1.246v.962c0,1.076-.453,1.642-1.7,1.642H179.8Zm1.245,3.114h.453c.4,0,.566-.226.566-.623v-.906a.543.543,0,0,0-.623-.623h-.4Zm0,.962V423.8h.566a.566.566,0,0,0,.623-.623v-1.132a.543.543,0,0,0-.623-.623h-.566Z" transform="translate(-151.608 -406.418)" fill="#fff"></path><path id="Path_371" data-name="Path 371" d="M187.6,417.4h1.245v7.416H187.6Z" transform="translate(-154.992 -406.418)" fill="#fff"></path><path id="Path_372" data-name="Path 372" d="M191.2,417.4h1.245v6.4h1.472v1.019H191.2Z" transform="translate(-156.554 -406.418)" fill="#fff"></path><path id="Path_373" data-name="Path 373" d="M197.3,417.4h3v1.019h-1.755v2.095h1.245v1.019h-1.245V423.8H200.3v1.019h-3Z" transform="translate(-159.201 -406.418)" fill="#fff"></path></g></svg>