<svg xmlns="http://www.w3.org/2000/svg" id="Group_52" data-name="Group 52" width="91.086" height="91.086" viewBox="0 0 91.086 91.086"><rect id="Rectangle_34" data-name="Rectangle 34" width="91.086" height="91.086" fill="#fd9d24"></rect><path id="Path_232" data-name="Path 232" d="M808.7,401.44v3.227h0l2.208-2.264h0v14.039h3.114V398.1h-2.491Z" transform="translate(-802.19 -390.458)" fill="#fff"></path><path id="Path_233" data-name="Path 233" d="M821.1,401.44v3.227h.057l2.151-2.264h.057v14.039h3.057V398.1h-2.434Z" transform="translate(-807.57 -390.458)" fill="#fff"></path><g id="Group_50" data-name="Group 50" transform="translate(15.228 35.948)"><g id="Group_49" data-name="Group 49" transform="translate(0 23.833)"><path id="Path_234" data-name="Path 234" d="M824.54,499.767h13.7a.365.365,0,0,0,.34-.34.294.294,0,0,0-.113-.226h0l-6.793-8.831-.057-.057a.283.283,0,0,0-.453,0l-.057.057-.057.057-6.68,8.718-.113.113a.208.208,0,0,0-.057.17A.365.365,0,0,0,824.54,499.767Z" transform="translate(-824.143 -490.2)" fill="#fff"></path><path id="Path_235" data-name="Path 235" d="M838.2,509.3H824.44a.365.365,0,0,0-.34.34V520.4a.365.365,0,0,0,.34.34h4.416V514a.365.365,0,0,1,.34-.34h4.076a.365.365,0,0,1,.34.34v6.737h4.529a.365.365,0,0,0,.34-.34V509.64A.283.283,0,0,0,838.2,509.3Z" transform="translate(-824.1 -498.487)" fill="#fff"></path></g><path id="Path_236" data-name="Path 236" d="M922.126,504.3H908.54a.365.365,0,0,0-.339.34v13.7a.365.365,0,0,0,.339.34h13.586a.365.365,0,0,0,.34-.34v-13.7a.365.365,0,0,0-.34-.34m-7.416,9a.365.365,0,0,1-.34.34h-4.076a.365.365,0,0,1-.34-.34V510.81a.365.365,0,0,1,.34-.34h4.076a.365.365,0,0,1,.34.34Zm0-4.585a.365.365,0,0,1-.34.34h-4.076a.365.365,0,0,1-.34-.34v-2.491a.365.365,0,0,1,.34-.34h4.076a.365.365,0,0,1,.34.34Zm6.17,4.585a.365.365,0,0,1-.34.34h-4.076a.365.365,0,0,1-.339-.34V510.81a.365.365,0,0,1,.339-.34h4.076a.365.365,0,0,1,.34.34Zm0-4.585a.365.365,0,0,1-.34.34h-4.076a.365.365,0,0,1-.339-.34v-2.491a.365.365,0,0,1,.339-.34h4.076a.365.365,0,0,1,.34.34Z" transform="translate(-860.591 -472.485)" fill="#fff"></path><path id="Path_237" data-name="Path 237" d="M866.543,448.1h-13.3a.365.365,0,0,0-.34.34V493.9a.365.365,0,0,0,.34.34h13.3a.365.365,0,0,0,.34-.34V448.44a.326.326,0,0,0-.34-.34m-7.926,40.929a.15.15,0,0,1-.17.17h-3.057a.15.15,0,0,1-.17-.17v-3.4a.15.15,0,0,1,.17-.17h3.057a.15.15,0,0,1,.17.17Zm0-7.812a.15.15,0,0,1-.17.17h-3.057a.15.15,0,0,1-.17-.17v-3.4a.15.15,0,0,1,.17-.17h3.057a.15.15,0,0,1,.17.17Zm0-7.812a.15.15,0,0,1-.17.17h-3.057a.15.15,0,0,1-.17-.17v-3.4a.15.15,0,0,1,.17-.17h3.057a.15.15,0,0,1,.17.17Zm0-7.756a.15.15,0,0,1-.17.17h-3.057a.15.15,0,0,1-.17-.17v-3.4a.15.15,0,0,1,.17-.17h3.057a.15.15,0,0,1,.17.17Zm0-7.812a.15.15,0,0,1-.17.17h-3.057a.15.15,0,0,1-.17-.17v-3.4a.15.15,0,0,1,.17-.17h3.057a.15.15,0,0,1,.17.17Zm6,31.192a.15.15,0,0,1-.17.17h-3.057a.15.15,0,0,1-.17-.17v-3.4a.15.15,0,0,1,.17-.17h3.057a.15.15,0,0,1,.17.17Zm0-7.812a.15.15,0,0,1-.17.17h-3.057a.15.15,0,0,1-.17-.17v-3.4a.15.15,0,0,1,.17-.17h3.057a.15.15,0,0,1,.17.17Zm0-7.812a.15.15,0,0,1-.17.17h-3.057a.15.15,0,0,1-.17-.17v-3.4a.15.15,0,0,1,.17-.17h3.057a.15.15,0,0,1,.17.17Zm0-7.756a.15.15,0,0,1-.17.17h-3.057a.15.15,0,0,1-.17-.17v-3.4a.15.15,0,0,1,.17-.17h3.057a.15.15,0,0,1,.17.17Zm0-7.812a.15.15,0,0,1-.17.17h-3.057a.15.15,0,0,1-.17-.17v-3.4a.15.15,0,0,1,.17-.17h3.057a.15.15,0,0,1,.17.17Z" transform="translate(-836.596 -448.1)" fill="#fff"></path><path id="Path_238" data-name="Path 238" d="M922.466,499.6a.267.267,0,0,1-.283.283h-13.7a.267.267,0,0,1-.283-.283v-2.717a.267.267,0,0,1,.283-.283h13.7a.267.267,0,0,1,.283.283Z" transform="translate(-860.591 -469.144)" fill="#fff"></path><path id="Path_239" data-name="Path 239" d="M894.77,463.026a.31.31,0,0,0-.34-.226.208.208,0,0,0-.17.057h0l-.113.113L881.07,479.557l-.057.057a.432.432,0,0,0-.113.283h0v20.38a.365.365,0,0,0,.34.34h13.3a.365.365,0,0,0,.34-.34V463.14C894.77,463.14,894.77,463.083,894.77,463.026Zm-5.491,9,.113-.113c.906-1.132,2.378-3,3.114-3.906l.113-.113a.433.433,0,0,1,.283-.113.317.317,0,0,1,.34.283v4.189a.424.424,0,0,1-.34.4h-3.283c-.227,0-.34-.17-.34-.4C889.165,472.2,889.222,472.084,889.278,472.027Zm-2.094,23.267a.365.365,0,0,1-.34.34h-3.963a.365.365,0,0,1-.34-.34V492.8a.365.365,0,0,1,.34-.34h3.963a.365.365,0,0,1,.34.34Zm0-4.585a.365.365,0,0,1-.34.34h-3.963a.365.365,0,0,1-.34-.34v-2.491a.365.365,0,0,1,.34-.34h3.963a.365.365,0,0,1,.34.34Zm0-4.586a.365.365,0,0,1-.34.34h-3.963a.365.365,0,0,1-.34-.34v-2.491a.365.365,0,0,1,.34-.34h3.963a.365.365,0,0,1,.34.34Zm0-10.077v5.435a.365.365,0,0,1-.34.34h-3.963a.365.365,0,0,1-.34-.34V480.8h0v-.17a29.681,29.681,0,0,0,.113-.113c.509-.736,2.774-3.566,3.736-4.7l.113-.113a.433.433,0,0,1,.283-.113.317.317,0,0,1,.34.283v.17Zm6.057,19.248a.365.365,0,0,1-.34.34h-3.963a.365.365,0,0,1-.34-.34V492.8a.365.365,0,0,1,.34-.34H892.9a.365.365,0,0,1,.34.34Zm0-4.585a.365.365,0,0,1-.34.34h-3.963a.365.365,0,0,1-.34-.34v-2.491a.365.365,0,0,1,.34-.34H892.9a.365.365,0,0,1,.34.34Zm0-4.586a.365.365,0,0,1-.34.34h-3.963a.365.365,0,0,1-.34-.34v-2.491a.365.365,0,0,1,.34-.34H892.9a.365.365,0,0,1,.34.34Zm0-4.585a.365.365,0,0,1-.34.34h-3.963a.365.365,0,0,1-.34-.34v-2.491a.365.365,0,0,1,.34-.34H892.9a.365.365,0,0,1,.34.34Zm0-4.585a.365.365,0,0,1-.34.34h-3.963a.365.365,0,0,1-.34-.34v-2.491a.365.365,0,0,1,.34-.34H892.9a.365.365,0,0,1,.34.34Z" transform="translate(-848.745 -454.478)" fill="#fff"></path></g><g id="Group_51" data-name="Group 51" transform="translate(24.852 6.227)"><path id="Path_240" data-name="Path 240" d="M841.2,403.548v-3.566A1.757,1.757,0,0,1,843.068,398c1.359,0,1.755.793,1.755,1.868v.849h-1.132V399.7c0-.453-.17-.736-.623-.736s-.623.34-.623.793v3.963c0,.453.17.793.623.793s.623-.283.623-.736v-1.359h1.132v1.3c0,1.076-.453,1.868-1.755,1.868A1.826,1.826,0,0,1,841.2,403.548Z" transform="translate(-841.143 -396.641)" fill="#fff"></path><path id="Path_241" data-name="Path 241" d="M849,398h1.245v7.416H849Z" transform="translate(-844.528 -396.641)" fill="#fff"></path><path id="Path_242" data-name="Path 242" d="M852.4,398h3.34v1.019h-1.019v6.4h-1.245v-6.4h-1.019V398Z" transform="translate(-846.003 -396.641)" fill="#fff"></path><path id="Path_243" data-name="Path 243" d="M859.2,398h3.34v1.019h-1.019v6.4h-1.245v-6.4h-1.019V398Z" transform="translate(-848.953 -396.641)" fill="#fff"></path><path id="Path_244" data-name="Path 244" d="M865,404.375l1.415-7.416h1.415l1.415,7.416h-1.3l-.226-1.359h-1.3l-.227,1.359Zm1.132-8.775,1.981.4v.679l-1.981-.226Zm.453,6.454H867.6l-.51-3h0Z" transform="translate(-851.47 -395.6)" fill="#fff"></path><path id="Path_245" data-name="Path 245" d="M875.8,398h3v1.019h-1.755v2.095h1.245v1.019h-1.245V404.4H878.8v1.019h-3Z" transform="translate(-856.156 -396.641)" fill="#fff"></path><path id="Path_246" data-name="Path 246" d="M884.6,403.548v-3.566A1.757,1.757,0,0,1,886.468,398c1.359,0,1.755.793,1.755,1.868v.849h-1.132V399.7c0-.453-.17-.736-.623-.736s-.623.34-.623.793v3.963c0,.453.17.793.623.793s.623-.283.623-.736v-1.359h1.132v1.3c0,1.076-.453,1.868-1.755,1.868A1.826,1.826,0,0,1,884.6,403.548Z" transform="translate(-859.974 -396.641)" fill="#fff"></path><path id="Path_247" data-name="Path 247" d="M892.4,403.548v-3.566a1.871,1.871,0,1,1,3.736,0v3.566a1.871,1.871,0,1,1-3.736,0Zm2.547.17v-3.963c0-.453-.17-.793-.622-.793s-.623.34-.623.793v3.963c0,.453.17.793.623.793C894.721,404.51,894.947,404.17,894.947,403.718Z" transform="translate(-863.359 -396.641)" fill="#fff"></path><path id="Path_248" data-name="Path 248" d="M904.04,400.6h0l-.849,4.812h-.566l-.906-4.812h0v4.812H900.7V398h1.472l.793,4.189h0L903.7,398h1.585v7.416h-1.132V400.6Z" transform="translate(-866.96 -396.641)" fill="#fff"></path><path id="Path_249" data-name="Path 249" d="M913.623,398v5.6c0,1.132-.51,1.868-1.755,1.868A1.673,1.673,0,0,1,910,403.6V398h1.245v5.718c0,.453.17.736.623.736s.623-.283.623-.736V398Z" transform="translate(-870.995 -396.641)" fill="#fff"></path><path id="Path_250" data-name="Path 250" d="M918.876,400.774v4.642H917.8V398h1.245l1.359,4.246V398h1.019v7.416h-1.076Z" transform="translate(-874.38 -396.641)" fill="#fff"></path><path id="Path_251" data-name="Path 251" d="M925.7,398h1.246v7.416H925.7Z" transform="translate(-877.807 -396.641)" fill="#fff"></path><path id="Path_252" data-name="Path 252" d="M929.1,398h3.34v1.019h-1.019v6.4h-1.245v-6.4h-1.019V398Z" transform="translate(-879.283 -396.641)" fill="#fff"></path><path id="Path_253" data-name="Path 253" d="M934.9,404.375l1.415-7.416h1.415l1.415,7.416h-1.3l-.226-1.359h-1.3l-.226,1.359Zm1.132-8.775,1.981.4v.679l-1.981-.226Zm.4,6.454h1.019l-.51-3h0Z" transform="translate(-881.799 -395.6)" fill="#fff"></path><path id="Path_254" data-name="Path 254" d="M841.1,423.087v-1.019h1.132v1.019c0,.4.17.679.623.679.4,0,.566-.283.566-.679V422.8a1.369,1.369,0,0,0-.566-1.076l-.679-.679a2.39,2.39,0,0,1-1.019-1.981v-.226a1.55,1.55,0,0,1,1.755-1.642c1.245,0,1.755.623,1.755,1.7v.623h-1.132V418.9c0-.453-.17-.623-.566-.623-.339,0-.566.17-.566.623v.17a1.451,1.451,0,0,0,.566,1.019l.793.793a2.53,2.53,0,0,1,1.019,1.925v.34a1.624,1.624,0,0,1-1.812,1.755C841.609,424.786,841.1,424.106,841.1,423.087Z" transform="translate(-841.1 -404.972)" fill="#fff"></path><path id="Path_255" data-name="Path 255" d="M848.8,422.848v-3.566a1.871,1.871,0,1,1,3.736,0v3.566a1.871,1.871,0,1,1-3.736,0Zm2.491.17v-3.963c0-.453-.17-.793-.623-.793s-.623.34-.623.793v3.963c0,.453.17.793.623.793S851.291,423.471,851.291,423.018Z" transform="translate(-844.441 -405.016)" fill="#fff"></path><path id="Path_256" data-name="Path 256" d="M856.8,423.044v-1.019h1.132v1.019c0,.4.17.679.623.679.4,0,.566-.283.566-.679v-.283a1.369,1.369,0,0,0-.566-1.076l-.736-.736a2.39,2.39,0,0,1-1.019-1.981v-.226a1.55,1.55,0,0,1,1.755-1.642c1.245,0,1.755.623,1.755,1.7v.623h-1.132V418.8c0-.453-.17-.623-.566-.623-.34,0-.566.17-.566.623v.17a1.449,1.449,0,0,0,.566,1.019l.793.793a2.53,2.53,0,0,1,1.019,1.925v.34a1.624,1.624,0,0,1-1.811,1.755C857.253,424.742,856.8,424.063,856.8,423.044Z" transform="translate(-847.912 -404.929)" fill="#fff"></path><path id="Path_257" data-name="Path 257" d="M863.9,417.4h3.34v1.019h-1.019v6.4h-1.245v-6.4h-1.019V417.4Z" transform="translate(-850.993 -405.059)" fill="#fff"></path><path id="Path_258" data-name="Path 258" d="M871,417.4h3v1.019h-1.755v2.095h1.245v1.019h-1.245V423.8H874v1.019h-3Z" transform="translate(-854.073 -405.059)" fill="#fff"></path><path id="Path_259" data-name="Path 259" d="M878.576,420.074v4.642H877.5V417.3h1.246l1.359,4.246V417.3h1.019v7.416h-1.076Z" transform="translate(-856.894 -405.016)" fill="#fff"></path><path id="Path_260" data-name="Path 260" d="M885.4,417.4h1.246v7.416H885.4Z" transform="translate(-860.322 -405.059)" fill="#fff"></path><path id="Path_261" data-name="Path 261" d="M889.1,417.4h1.812c1.245,0,1.642.566,1.642,1.642v.736a1.093,1.093,0,0,1-.736,1.189,1.134,1.134,0,0,1,.906,1.246v.962c0,1.076-.453,1.642-1.7,1.642H889.1Zm1.245,3.114h.453c.4,0,.566-.226.566-.623v-.906a.543.543,0,0,0-.623-.623h-.453v2.151Zm0,.962V423.8h.566a.566.566,0,0,0,.623-.623v-1.132a.543.543,0,0,0-.623-.623h-.566Z" transform="translate(-861.927 -405.059)" fill="#fff"></path><path id="Path_262" data-name="Path 262" d="M896.8,417.4h1.245v7.416H896.8Z" transform="translate(-865.268 -405.059)" fill="#fff"></path><path id="Path_263" data-name="Path 263" d="M900.5,417.4h1.245v6.4h1.472v1.019H900.5Z" transform="translate(-866.873 -405.059)" fill="#fff"></path><path id="Path_264" data-name="Path 264" d="M906.5,417.4h1.245v7.416H906.5Z" transform="translate(-869.477 -405.059)" fill="#fff"></path></g></svg>