<svg xmlns="http://www.w3.org/2000/svg" id="Group_48" data-name="Group 48" width="91.086" height="91.086" viewBox="0 0 91.086 91.086"><rect id="XMLID_67_" width="91.086" height="91.086" transform="translate(0)" fill="#bf8b2e"></rect><path id="XMLID_64_" d="M989.908,402.4h0v14.1h3.114V398.1h-2.491l-2.831,3.34v3.227h0Z" transform="translate(-980.794 -390.458)" fill="#fff"></path><path id="XMLID_44_" d="M1000.257,401.719v2.208h2.831v-2.321c0-1.132.566-1.415,1.189-1.415s1.132.226,1.132,1.359v1.529a3.6,3.6,0,0,1-1.132,3.17l-1.755,1.868c-1.7,1.812-2.321,3-2.321,4.812v3.4h8.039v-2.547h-5.095v-.849a3.556,3.556,0,0,1,1.3-2.83l1.981-2.095a5.769,5.769,0,0,0,1.925-4.642v-1.812c0-2.6-1.245-3.849-4.019-3.849-2.661,0-4.076,1.472-4.076,4.019" transform="translate(-986.217 -390.284)" fill="#fff"></path><path id="XMLID_37_" d="M1057.045,468.2a16.332,16.332,0,0,0-9.907-3.227,9.682,9.682,0,0,0-2.378.226l-.226.057c-2.378.566-6.284,1.472-10.869,7.19l-.113.17a.8.8,0,0,0-.113.34.424.424,0,0,0,.057.283l.113.17c.736,1.245,1.359,2.378,1.868,3.283a.584.584,0,0,0,.962.113c.057-.057.057-.113.113-.113,3.963-5.491,7.076-6.227,9.114-6.68l.227-.057a6.666,6.666,0,0,1,1.245-.113,11.7,11.7,0,0,1,6.85,2.208c2.321,1.812,3.453,4.7,3.453,8.6,0,6.567-3.17,9.114-5.831,10.077a8.806,8.806,0,0,1-3.227.566,10.653,10.653,0,0,1-4.869-1.132l-.17-.113c-2.264-1.019-5.718-3.057-8.945-9.567-6.623-13.3-12.171-14.549-15.851-15.4l-.17-.057A11.218,11.218,0,0,0,1016,464.8a15.574,15.574,0,0,0-9.737,3.227c-2.378,1.925-5.265,5.661-5.265,12.454,0,4.189.849,6.906,3.057,9.794a14.607,14.607,0,0,0,11.6,5.491,17.156,17.156,0,0,0,3.34-.34,14.528,14.528,0,0,0,5.718-2.6l1.925,1.755a.607.607,0,0,0,.793-.057c.113-.113.17-.227.113-.34l1.472-9.228v-.113a.581.581,0,0,0-.566-.566h0l-9,2.491h-.17a.311.311,0,0,0-.283.17.612.612,0,0,0-.17.4.514.514,0,0,0,.17.4l1.868,1.7a8.232,8.232,0,0,1-2.887,1.189,11.276,11.276,0,0,1-2.378.226,9.627,9.627,0,0,1-7.7-3.51l-.056-.057a10.02,10.02,0,0,1-2.095-6.85c0-3.906,1.132-6.85,3.4-8.661a11.1,11.1,0,0,1,6.68-2.151,6.68,6.68,0,0,1,1.245.113l.226.057c2.944.679,6.963,1.585,12.567,12.794,2.944,5.944,6.624,9.794,11.265,11.832a16.581,16.581,0,0,0,7.133,1.642,13.621,13.621,0,0,0,4.982-.906c2.718-1.019,9-4.472,9-14.719C1062.422,473.858,1059.479,470.121,1057.045,468.2Z" transform="translate(-986.564 -419.398)" fill="#fff"></path><g id="Group_47" data-name="Group 47" transform="translate(29.098 7.473)"><path id="Path_213" data-name="Path 213" d="M1026.9,403.548v-3.566a1.757,1.757,0,0,1,1.868-1.981c1.359,0,1.755.793,1.755,1.868v.849h-1.132V399.7c0-.453-.17-.736-.623-.736s-.623.34-.623.793v3.963c0,.453.17.793.623.793s.623-.283.623-.736v-1.359h1.132v1.3c0,1.076-.453,1.868-1.755,1.868A1.8,1.8,0,0,1,1026.9,403.548Z" transform="translate(-1026.9 -397.887)" fill="#fff"></path><path id="Path_214" data-name="Path 214" d="M1034.6,403.548v-3.566a1.871,1.871,0,1,1,3.736,0v3.566a1.871,1.871,0,1,1-3.736,0Zm2.547.17v-3.963c0-.453-.17-.793-.623-.793s-.623.34-.623.793v3.963c0,.453.17.793.623.793S1037.147,404.17,1037.147,403.718Z" transform="translate(-1030.241 -397.887)" fill="#fff"></path><path id="Path_215" data-name="Path 215" d="M1043.776,400.774v4.642H1042.7V398h1.246l1.359,4.246V398h1.019v7.416h-1.076Z" transform="translate(-1033.756 -397.887)" fill="#fff"></path><path id="Path_216" data-name="Path 216" d="M1050.5,403.744v-1.019h1.132v1.019c0,.4.17.679.623.679.4,0,.566-.283.566-.679v-.283a1.368,1.368,0,0,0-.566-1.076l-.736-.736a2.39,2.39,0,0,1-1.019-1.981v-.226a1.55,1.55,0,0,1,1.755-1.642c1.245,0,1.755.623,1.755,1.7v.623h-1.132V399.5c0-.453-.17-.623-.566-.623-.34,0-.566.17-.566.623v.17a1.45,1.45,0,0,0,.566,1.019l.792.793a2.53,2.53,0,0,1,1.019,1.925v.34a1.624,1.624,0,0,1-1.811,1.755C1050.953,405.442,1050.5,404.707,1050.5,403.744Z" transform="translate(-1037.14 -397.8)" fill="#fff"></path><path id="Path_217" data-name="Path 217" d="M1061.723,398v5.6c0,1.132-.509,1.868-1.755,1.868a1.673,1.673,0,0,1-1.868-1.868V398h1.245v5.718c0,.453.17.736.623.736s.623-.283.623-.736V398Z" transform="translate(-1040.438 -397.887)" fill="#fff"></path><path id="Path_218" data-name="Path 218" d="M1069.44,400.6h0l-.849,4.812h-.566l-.906-4.812h0v4.812H1066.1V398h1.472l.793,4.189h0L1069.1,398h1.585v7.416h-1.132V400.6Z" transform="translate(-1043.909 -397.887)" fill="#fff"></path><path id="Path_219" data-name="Path 219" d="M1075.5,403.548v-3.566a1.871,1.871,0,1,1,3.736,0v3.566a1.871,1.871,0,1,1-3.736,0Zm2.491.17v-3.963c0-.453-.17-.793-.623-.793s-.622.34-.622.793v3.963c0,.453.17.793.622.793S1077.991,404.17,1077.991,403.718Z" transform="translate(-1047.987 -397.887)" fill="#fff"></path><path id="Path_220" data-name="Path 220" d="M1028.146,421.319v3.4H1026.9V417.3h1.811c1.245,0,1.7.623,1.7,1.642v.962a1.234,1.234,0,0,1-1.019,1.415l1.189,3.34h-1.3Zm0-2.944V420.7h.4a.543.543,0,0,0,.623-.623V419a.543.543,0,0,0-.623-.623Z" transform="translate(-1026.9 -406.261)" fill="#fff"></path><path id="Path_221" data-name="Path 221" d="M1034.5,417.4h3v1.019h-1.755v2.095h1.245v1.019h-1.245V423.8h1.755v1.019h-3Z" transform="translate(-1030.198 -406.304)" fill="#fff"></path><path id="Path_222" data-name="Path 222" d="M1040.9,423.044v-1.019h1.132v1.019c0,.4.17.679.623.679.4,0,.566-.283.566-.679v-.283a1.368,1.368,0,0,0-.566-1.076l-.736-.736a2.389,2.389,0,0,1-1.019-1.981v-.226a1.55,1.55,0,0,1,1.755-1.642c1.246,0,1.755.623,1.755,1.7v.623h-1.132V418.8c0-.453-.17-.623-.566-.623-.339,0-.566.17-.566.623v.17a1.451,1.451,0,0,0,.566,1.019l.793.793a2.53,2.53,0,0,1,1.019,1.925v.34a1.624,1.624,0,0,1-1.812,1.755C1041.41,424.742,1040.9,424.063,1040.9,423.044Z" transform="translate(-1032.974 -406.174)" fill="#fff"></path><path id="Path_223" data-name="Path 223" d="M1048.6,417.4h1.868c1.245,0,1.7.623,1.7,1.642v1.585a1.5,1.5,0,0,1-1.7,1.7h-.623v2.491H1048.6V417.4Zm1.246,1.019v2.944h.453a.543.543,0,0,0,.623-.623v-1.7a.543.543,0,0,0-.623-.623Z" transform="translate(-1036.315 -406.304)" fill="#fff"></path><path id="Path_224" data-name="Path 224" d="M1056.2,422.848v-3.566a1.871,1.871,0,1,1,3.736,0v3.566a1.871,1.871,0,1,1-3.736,0Zm2.491.17v-3.963c0-.453-.17-.793-.623-.793s-.623.34-.623.793v3.963c0,.453.17.793.623.793S1058.691,423.471,1058.691,423.018Z" transform="translate(-1039.613 -406.261)" fill="#fff"></path><path id="Path_225" data-name="Path 225" d="M1065.375,420.074v4.642H1064.3V417.3h1.245l1.359,4.246V417.3h1.019v7.416h-1.076Z" transform="translate(-1043.128 -406.261)" fill="#fff"></path><path id="Path_226" data-name="Path 226" d="M1072,423.044v-1.019h1.132v1.019c0,.4.17.679.623.679.4,0,.566-.283.566-.679v-.283a1.369,1.369,0,0,0-.566-1.076l-.736-.736a2.39,2.39,0,0,1-1.019-1.981v-.226a1.55,1.55,0,0,1,1.755-1.642c1.245,0,1.755.623,1.755,1.7v.623h-1.132V418.8c0-.453-.17-.623-.566-.623-.34,0-.566.17-.566.623v.17a1.45,1.45,0,0,0,.566,1.019l.793.793a2.531,2.531,0,0,1,1.019,1.925v.34a1.624,1.624,0,0,1-1.811,1.755C1072.509,424.742,1072,424.063,1072,423.044Z" transform="translate(-1046.469 -406.174)" fill="#fff"></path><path id="Path_227" data-name="Path 227" d="M1079.1,424.816l1.415-7.416h1.415l1.415,7.416h-1.3l-.226-1.359h-1.3l-.227,1.359Zm1.585-2.378h1.019l-.51-3h0Z" transform="translate(-1049.549 -406.304)" fill="#fff"></path><path id="Path_228" data-name="Path 228" d="M1087.7,417.4h1.812c1.246,0,1.642.566,1.642,1.642v.736a1.093,1.093,0,0,1-.736,1.189,1.134,1.134,0,0,1,.906,1.246v.962c0,1.076-.453,1.642-1.7,1.642H1087.7Zm1.246,3.114h.453c.4,0,.566-.226.566-.623v-.906a.543.543,0,0,0-.623-.623h-.453v2.151Zm0,.962V423.8h.566a.566.566,0,0,0,.623-.623v-1.132a.543.543,0,0,0-.623-.623h-.566Z" transform="translate(-1053.281 -406.304)" fill="#fff"></path><path id="Path_229" data-name="Path 229" d="M1095.4,417.4h1.245v7.416H1095.4Z" transform="translate(-1056.622 -406.304)" fill="#fff"></path><path id="Path_230" data-name="Path 230" d="M1099.1,417.4h1.245v6.4h1.472v1.019H1099.1Z" transform="translate(-1058.227 -406.304)" fill="#fff"></path><path id="Path_231" data-name="Path 231" d="M1105.1,417.4h3v1.019h-1.755v2.095h1.245v1.019h-1.245V423.8h1.755v1.019h-3Z" transform="translate(-1060.831 -406.304)" fill="#fff"></path></g></svg>