<svg xmlns="http://www.w3.org/2000/svg" id="Group_37" data-name="Group 37" width="91.086" height="91.086" viewBox="0 0 91.086 91.086"><rect id="Rectangle_29" data-name="Rectangle 29" width="91.086" height="91.086" fill="#19486a"></rect><path id="Path_68" data-name="Path 68" d="M817.165,577.4v18.4h-3.057V581.7h-.057l-2.151,2.264h0V580.74l2.831-3.34Z" transform="translate(-803.578 -569.758)" fill="#fff"></path><path id="Path_69" data-name="Path 69" d="M823.7,577.4h7.755v2.887L827.436,595.8h-3.057l4.133-15.851H823.7Z" transform="translate(-808.698 -569.758)" fill="#fff"></path><path id="Path_70" data-name="Path 70" d="M883.789,646.357a11.86,11.86,0,0,0-11.435-11.832,11.889,11.889,0,0,0-22.418,0,11.828,11.828,0,0,0-6.85,21.172,12.424,12.424,0,0,0-.453,3.283,11.887,11.887,0,0,0,11.888,11.888,11.7,11.7,0,0,0,6.68-2.095,11.885,11.885,0,0,0,18.455-9.907,12.006,12.006,0,0,0-.453-3.227,11.477,11.477,0,0,0,4.586-9.284m-13.134-7.869a9.452,9.452,0,0,1-8.1,9.341,11.956,11.956,0,0,1-.113-1.472,9.452,9.452,0,0,1,8.1-9.341,11.949,11.949,0,0,1,.113,1.472m-9.454,27.23a9.489,9.489,0,0,1-2.887-6.793,9.7,9.7,0,0,1,2.774-6.737,9.489,9.489,0,0,1,2.887,6.793,9.045,9.045,0,0,1-2.774,6.737m-9.341-28.7a9.452,9.452,0,0,1,8.1,9.341,12.869,12.869,0,0,1-.113,1.472,9.452,9.452,0,0,1-8.1-9.341,4.213,4.213,0,0,1,.113-1.472m7.02,13.587a9.49,9.49,0,0,1-8.435,5.265,9.371,9.371,0,0,1-4.359-1.076,9.51,9.51,0,0,1,8.492-5.265,9.316,9.316,0,0,1,4.3,1.076m4.585-.057a9.417,9.417,0,0,1,12.851,4.246,9.547,9.547,0,0,1-4.359,1.076,9.4,9.4,0,0,1-8.491-5.321M861.2,628.978a9.322,9.322,0,0,1,8.661,5.718,11.813,11.813,0,0,0-8.661,6.68,11.813,11.813,0,0,0-8.661-6.68,9.409,9.409,0,0,1,8.661-5.718m-20.267,17.379a9.5,9.5,0,0,1,8.435-9.4,13.874,13.874,0,0,0-.113,1.529,11.929,11.929,0,0,0,3.849,8.775,11.9,11.9,0,0,0-9.114,6.171,9.865,9.865,0,0,1-3.057-7.076m4.133,12.681a7.887,7.887,0,0,1,.227-1.981,12.078,12.078,0,0,0,5.151,1.189,11.463,11.463,0,0,0,5.718-1.472,13.217,13.217,0,0,0-.227,2.208,11.98,11.98,0,0,0,3.34,8.265,9.232,9.232,0,0,1-4.755,1.3,9.556,9.556,0,0,1-9.454-9.511m32.211-.113a9.461,9.461,0,0,1-14.153,8.209,11.759,11.759,0,0,0,3.284-8.152,9.93,9.93,0,0,0-.226-2.265,11.675,11.675,0,0,0,5.774,1.472A11.885,11.885,0,0,0,877.108,657a11.536,11.536,0,0,1,.17,1.925M869.24,647.15a11.871,11.871,0,0,0,3.793-8.718,13.875,13.875,0,0,0-.113-1.528,9.458,9.458,0,0,1,5.321,16.417,11.984,11.984,0,0,0-9-6.171" transform="translate(-815.12 -591.105)" fill="#fff"></path><g id="Group_36" data-name="Group 36" transform="translate(29.041 7.529)"><path id="Path_71" data-name="Path 71" d="M848.5,577.4h1.868c1.245,0,1.7.623,1.7,1.642v1.585a1.5,1.5,0,0,1-1.7,1.7h-.623v2.491H848.5Zm1.245,1.019v2.944h.453a.543.543,0,0,0,.623-.623v-1.7a.543.543,0,0,0-.623-.623Z" transform="translate(-848.5 -577.287)" fill="#fff"></path><path id="Path_72" data-name="Path 72" d="M855,584.816l1.415-7.416h1.415l1.415,7.416h-1.3l-.226-1.359h-1.3l-.226,1.359Zm1.585-2.321H857.6l-.51-3h0Z" transform="translate(-851.32 -577.287)" fill="#fff"></path><path id="Path_73" data-name="Path 73" d="M864.846,581.419v3.4H863.6V577.4h1.812c1.245,0,1.7.623,1.7,1.642V580a1.234,1.234,0,0,1-1.019,1.415l1.189,3.4h-1.3Zm0-3v2.321h.4a.543.543,0,0,0,.623-.623v-1.076a.543.543,0,0,0-.623-.623Z" transform="translate(-855.052 -577.287)" fill="#fff"></path><path id="Path_74" data-name="Path 74" d="M870.8,577.4h3.34v1.019h-1.019v6.4h-1.245v-6.4h-1.019V577.4Z" transform="translate(-858.176 -577.287)" fill="#fff"></path><path id="Path_75" data-name="Path 75" d="M878.876,580.174v4.642H877.8V577.4h1.245l1.359,4.246V577.4h1.019v7.416h-1.076Z" transform="translate(-861.213 -577.287)" fill="#fff"></path><path id="Path_76" data-name="Path 76" d="M885.7,577.4h3v1.019h-1.755v2.094h1.245v1.019h-1.245V583.8H888.7v1.019h-3Z" transform="translate(-864.641 -577.287)" fill="#fff"></path><path id="Path_77" data-name="Path 77" d="M893.545,581.419v3.4H892.3V577.4h1.812c1.245,0,1.7.623,1.7,1.642V580a1.234,1.234,0,0,1-1.019,1.415l1.189,3.4h-1.3Zm0-3v2.321h.4a.543.543,0,0,0,.623-.623v-1.076a.543.543,0,0,0-.623-.623Z" transform="translate(-867.505 -577.287)" fill="#fff"></path><path id="Path_78" data-name="Path 78" d="M899.7,583.144v-1.019h1.132v1.019c0,.4.17.679.623.679.4,0,.566-.283.566-.679v-.283a1.369,1.369,0,0,0-.566-1.076l-.736-.736a2.389,2.389,0,0,1-1.019-1.982v-.226a1.55,1.55,0,0,1,1.755-1.642c1.246,0,1.755.623,1.755,1.7v.623h-1.132V578.9c0-.453-.17-.623-.566-.623-.34,0-.566.17-.566.623v.17a1.449,1.449,0,0,0,.566,1.019l.792.793a2.53,2.53,0,0,1,1.019,1.925v.34a1.624,1.624,0,0,1-1.811,1.755A1.647,1.647,0,0,1,899.7,583.144Z" transform="translate(-870.715 -577.2)" fill="#fff"></path><path id="Path_79" data-name="Path 79" d="M909.834,581.533h-1.189v3.283H907.4V577.4h1.246v3.114h1.189V577.4h1.245v7.416h-1.245Z" transform="translate(-874.056 -577.287)" fill="#fff"></path><path id="Path_80" data-name="Path 80" d="M915.4,577.4h1.245v7.416H915.4Z" transform="translate(-877.528 -577.287)" fill="#fff"></path><path id="Path_81" data-name="Path 81" d="M919.1,577.4h1.868c1.245,0,1.7.623,1.7,1.642v1.585a1.5,1.5,0,0,1-1.7,1.7h-.623v2.491H919.1Zm1.246,1.019v2.944h.453a.543.543,0,0,0,.623-.623v-1.7a.543.543,0,0,0-.623-.623Z" transform="translate(-879.133 -577.287)" fill="#fff"></path><path id="Path_82" data-name="Path 82" d="M848.5,596.7h1.868c1.245,0,1.7.623,1.7,1.642v1.585a1.5,1.5,0,0,1-1.7,1.7h-.623v2.491H848.5Zm1.245,1.019v2.944h.453a.543.543,0,0,0,.623-.623v-1.7a.543.543,0,0,0-.623-.623Z" transform="translate(-848.5 -585.661)" fill="#fff"></path><path id="Path_83" data-name="Path 83" d="M856.2,596.7h3v1.019h-1.755v2.095h1.246v1.019h-1.246V603.1H859.2v1.019h-3Z" transform="translate(-851.841 -585.661)" fill="#fff"></path><path id="Path_84" data-name="Path 84" d="M864.045,600.719v3.4H862.8V596.7h1.812c1.246,0,1.7.623,1.7,1.642v.962a1.234,1.234,0,0,1-1.019,1.415l1.189,3.4h-1.3Zm0-3v2.321h.4a.543.543,0,0,0,.623-.623v-1.076a.543.543,0,0,0-.623-.623Z" transform="translate(-854.705 -585.661)" fill="#fff"></path><path id="Path_85" data-name="Path 85" d="M874.525,600.153h1.755v3.963h-.906v-.793a1.123,1.123,0,0,1-1.189.906c-1.076,0-1.585-.849-1.585-1.981v-3.566a1.757,1.757,0,0,1,1.868-1.981c1.359,0,1.755.792,1.755,1.868v.679h-1.132v-.736c0-.453-.17-.736-.623-.736s-.623.34-.623.792v3.963c0,.453.17.793.623.793.4,0,.623-.226.623-.736v-1.3h-.566Z" transform="translate(-858.957 -585.661)" fill="#fff"></path><path id="Path_86" data-name="Path 86" d="M880.5,596.7h1.245v6.4h1.472v1.019H880.5Z" transform="translate(-862.385 -585.661)" fill="#fff"></path><path id="Path_87" data-name="Path 87" d="M886.6,596.7h1.245v7.416H886.6Z" transform="translate(-865.031 -585.661)" fill="#fff"></path><path id="Path_88" data-name="Path 88" d="M892.5,602.148v-3.566a1.871,1.871,0,1,1,3.736,0v3.566a1.757,1.757,0,0,1-1.868,1.981C893.066,604.186,892.5,603.337,892.5,602.148Zm2.491.227v-3.963c0-.453-.17-.793-.623-.793s-.623.34-.623.793v3.963c0,.453.17.793.623.793C894.821,603.11,894.991,602.827,894.991,602.374Z" transform="translate(-867.591 -585.618)" fill="#fff"></path><path id="Path_89" data-name="Path 89" d="M900.6,596.7h1.811c1.245,0,1.642.566,1.642,1.642v.736a1.093,1.093,0,0,1-.736,1.189,1.135,1.135,0,0,1,.906,1.246v.962c0,1.076-.453,1.642-1.7,1.642H900.6Zm1.245,3.17h.453c.4,0,.566-.227.566-.623v-.906a.543.543,0,0,0-.623-.623h-.453v2.151Zm0,.906V603.1h.566a.566.566,0,0,0,.623-.623v-1.132a.543.543,0,0,0-.623-.623h-.566Z" transform="translate(-871.106 -585.661)" fill="#fff"></path><path id="Path_90" data-name="Path 90" d="M908.3,596.7h1.245v7.416H908.3Z" transform="translate(-874.447 -585.661)" fill="#fff"></path><path id="Path_91" data-name="Path 91" d="M912,596.7h3v1.019h-1.755v2.095h1.245v1.019h-1.245V603.1H915v1.019h-3Z" transform="translate(-876.052 -585.661)" fill="#fff"></path><path id="Path_92" data-name="Path 92" d="M918.3,596.7h3.34v1.019h-1.019v6.4h-1.245v-6.4h-1.019V596.7Z" transform="translate(-878.786 -585.661)" fill="#fff"></path><path id="Path_93" data-name="Path 93" d="M925.2,596.7h3.34v1.019h-1.019v6.4h-1.3v-6.4H925.2Z" transform="translate(-881.78 -585.661)" fill="#fff"></path><path id="Path_94" data-name="Path 94" d="M932.2,596.7h1.245v7.416H932.2Z" transform="translate(-884.817 -585.661)" fill="#fff"></path><path id="Path_95" data-name="Path 95" d="M939.789,596.7l-1.415,7.416h-1.359L935.6,596.7h1.246l.849,5.151h0l.849-5.151Z" transform="translate(-886.292 -585.661)" fill="#fff"></path><path id="Path_96" data-name="Path 96" d="M944,596.7h1.245v7.416H944Z" transform="translate(-889.937 -585.661)" fill="#fff"></path></g></svg>