<svg xmlns="http://www.w3.org/2000/svg" width="329.99" height="132.646" viewBox="0 0 329.99 132.646"><g id="Group_1" data-name="Group 1" transform="translate(0)"><g id="Group_68" data-name="Group 68"><path id="Path_239" data-name="Path 239" d="M1649.464,4431.628v-55.241h-55.241Z" transform="translate(-1319.474 -4376.388)" fill="#00ac8d"></path><path id="Path_240" data-name="Path 240" d="M1519.247,4435.749q0-21.866,14.9-36.559t37.326-14.69a58.875,58.875,0,0,1,13.3,1.461,47.689,47.689,0,0,1,10.517,3.551q4.178,2.09,7.383,4.109a28.655,28.655,0,0,1,4.736,3.549l1.392,1.393-11.284,18.385c-.834-.74-2-1.673-3.48-2.783a49.816,49.816,0,0,0-8.774-4.529,31.649,31.649,0,0,0-12.675-2.853q-13.512,0-20.821,8.354a29.425,29.425,0,0,0-7.312,20.054,31.663,31.663,0,0,0,7.52,20.962q7.52,8.982,20.613,8.98a31.347,31.347,0,0,0,13.3-3.062,36.735,36.735,0,0,0,9.818-6.127l3.341-3.062,12.537,17.823a24.074,24.074,0,0,1-1.671,1.815,54.894,54.894,0,0,1-4.943,3.969,59.133,59.133,0,0,1-8.149,5.081,60.022,60.022,0,0,1-25.348,5.849q-23.12,0-37.675-14.621T1519.247,4435.749Z" transform="translate(-1519.247 -4354.772)" fill="#fff"></path><path id="Path_241" data-name="Path 241" d="M1576.918,4473.106l12.8-18.5q1.254,1.111,3.478,2.853a47.3,47.3,0,0,0,8.487,4.585,28.561,28.561,0,0,0,11.824,2.856,13.809,13.809,0,0,0,7.369-1.88,6.559,6.559,0,0,0,3.064-6.051q0-2.643-3.343-5.08a33.992,33.992,0,0,0-8.273-4.24,114.58,114.58,0,0,1-10.781-4.658,95.788,95.788,0,0,1-10.781-6.122,26.726,26.726,0,0,1-8.277-8.973,25.122,25.122,0,0,1-3.338-12.936,27.37,27.37,0,0,1,10.088-21.977q10.083-8.485,25.105-8.483a51.519,51.519,0,0,1,17.457,2.851q8,2.849,11.2,5.633l3.339,2.783-10.294,19.892q-1.116-.973-3.13-2.437a44.834,44.834,0,0,0-7.79-3.893,28.423,28.423,0,0,0-11.06-2.436,13.768,13.768,0,0,0-7.442,1.95,6.426,6.426,0,0,0-3.13,5.838q0,3.341,4.592,5.984a78.261,78.261,0,0,0,11.2,5.146,137.4,137.4,0,0,1,13.214,5.843,30.974,30.974,0,0,1,11.2,9.667,25.02,25.02,0,0,1,4.588,15.093,29.05,29.05,0,0,1-9.458,21.912q-9.461,8.966-25.6,8.969a54.29,54.29,0,0,1-12.657-1.461,46.336,46.336,0,0,1-10.223-3.545,79.181,79.181,0,0,1-7.3-4.171,24.534,24.534,0,0,1-4.588-3.616Z" transform="translate(-1365.584 -4354.772)" fill="#fff"></path><path id="Path_265" data-name="Path 265" d="M1597.785,4379.951v28.421h28.425Z" transform="translate(-1309.983 -4366.898)" fill="#fff"></path><path id="Path_266" data-name="Path 266" d="M1560.888,4458.841l27.064-32.76v55.977h27.393v-96.618h-27.471l-27.038,34.79Z" transform="translate(-1408.433 -4352.265)" fill="#00ac8d"></path><path id="Path_267" data-name="Path 267" d="M1600.42,4458.841l-27.867-32.76v55.977H1546v-96.618h26.419l27.948,34.79v38.656" transform="translate(-1447.965 -4352.265)" fill="#fff"></path></g></g></svg>