<svg xmlns="http://www.w3.org/2000/svg" id="Component_4_1" data-name="Component 4 – 1" width="60" height="51.698" viewBox="0 0 60 51.698"><g id="Linkedin" transform="translate(-960.5 -896.194)"><rect id="back-11-4" data-name="back-11" width="51.192" height="51.192" transform="translate(960.5 896.7)" fill="#fff" opacity="0.5"></rect><path id="back-11-5" data-name="back-11" d="M960.5,896.7h51.192v51.192Z" fill="#fff"></path><g id="Linkedin-2"><path id="Path_47" data-name="Path 47" d="M972.129,917.394h5.945V936.51h-5.945Zm2.976-9.5a3.445,3.445,0,1,1-3.445,3.445h0A3.445,3.445,0,0,1,975.1,907.9" fill="#7f3f98"></path><path id="Path_48" data-name="Path 48" d="M981.8,917.394h5.691v2.614h.108a6.241,6.241,0,0,1,5.62-3.084c6.022,0,7.124,3.957,7.124,9.1V936.51h-5.938v-9.293c0-2.217-.036-5.071-3.084-5.071s-3.565,2.409-3.565,4.908v9.456h-5.932Z" fill="#7f3f98"></path></g></g></svg>